<svg xmlns:xlink="http://www.w3.org/1999/xlink" xmlns="http://www.w3.org/2000/svg" viewBox="0 0 1024 1024" fill="none" width="1024" height="1024" focusable="false"><path d="M512 42.667c177.63 0 323.571 135.68 339.827 309.077 75.358 25.899 129.506 97.451 129.506 181.589 0 84.224-54.255 155.819-129.732 181.675-16.124 149.76-142.912 266.325-296.934 266.325v0h-42.667c-70.694 0-128-57.301-128-128s57.306-128 128-128c70.694 0 128 57.301 128 128 0 8.917-0.913 17.621-2.654 26.069 64.119-27.008 112.282-84.395 126.409-154.155-45.158-2.219-81.088-39.552-81.088-85.248v0-213.333c0-45.952 36.314-83.413 81.805-85.248-20.284-121.131-125.598-213.419-252.471-213.419s-232.189 92.288-252.472 213.419c45.492 1.835 81.806 39.296 81.806 85.248v0 213.333c0 47.147-38.205 85.333-85.333 85.333v0h-21.333c-106.039 0-192-85.973-192-192 0-84.139 54.148-155.691 129.505-181.589 16.257-173.397 162.197-309.077 339.828-309.077zM512 810.667c-23.565 0-42.667 19.115-42.667 42.667s19.102 42.667 42.667 42.667c23.565 0 42.667-19.115 42.667-42.667s-19.102-42.667-42.667-42.667zM256 426.667h-21.333c-24.013 0-46.173 7.936-64 21.333-25.908 19.456-42.667 50.432-42.667 85.333s16.759 65.877 42.667 85.333c17.827 13.397 39.987 21.333 64 21.333h21.333v-213.333zM789.333 426.667h-21.333v213.333h21.333c24.013 0 46.174-7.936 64-21.333 25.907-19.456 42.667-50.432 42.667-85.333s-16.759-65.877-42.667-85.333c-17.826-13.397-39.987-21.333-64-21.333z" fill="#FFFFFF"></path></svg>