<svg xmlns="http://www.w3.org/2000/svg" viewBox="0 0 640 640"><!--! Font Awesome Pro 7.2.0 by @fontawesome - https://fontawesome.com License - https://fontawesome.com/license (Commercial License) Copyright 2026 Fonticons, Inc. --><path opacity=".4" fill="currentColor" d="M64 96L64 256C64 270.3 73.5 282.9 87.2 286.8C100.9 290.7 115.6 285.1 123.2 272.9L155.2 221.5L155.3 221.3L155.4 221.1C189.1 165.2 250.2 128 320 128C426 128 512 214 512 320C512 426 426 512 320 512C254.8 512 197.2 479.5 162.4 429.7C152.3 415.2 132.3 411.7 117.8 421.8C103.3 431.9 99.8 451.9 109.9 466.4C156.1 532.6 233 576 320 576C461.4 576 576 461.4 576 320C576 178.6 461.4 64 320 64C243.5 64 174.9 97.6 128 150.7L128 96C128 78.3 113.7 64 96 64C78.3 64 64 78.3 64 96z"/><path fill="currentColor" d="M244 224C277.1 224 304 250.9 304 284C304 297.5 299.5 310 291.9 320C299.5 330 304 342.5 304 356C304 389.1 277.1 416 244 416L216 416C202.7 416 192 405.3 192 392C192 378.7 202.7 368 216 368L244 368C250.6 368 256 362.6 256 356C256 349.4 250.6 344 244 344L224 344C210.7 344 200 333.3 200 320C200 306.7 210.7 296 224 296L244 296C250.6 296 256 290.6 256 284C256 277.4 250.6 272 244 272L216 272C202.7 272 192 261.3 192 248C192 234.7 202.7 224 216 224L244 224zM408 224C438.9 224 464 249.1 464 280L464 360C464 390.9 438.9 416 408 416L392 416C361.1 416 336 390.9 336 360L336 280C336 249.1 361.1 224 392 224L408 224zM392 272C387.6 272 384 275.6 384 280L384 360C384 364.4 387.6 368 392 368L408 368C412.4 368 416 364.4 416 360L416 280C416 275.6 412.4 272 408 272L392 272z"/></svg>