<svg xmlns="http://www.w3.org/2000/svg" viewBox="0 0 640 640"><!--! Font Awesome Pro 7.2.0 by @fontawesome - https://fontawesome.com License - https://fontawesome.com/license (Commercial License) Copyright 2026 Fonticons, Inc. --><path opacity=".4" fill="currentColor" d="M176.7 429.4L483.8 122.3L517.7 156.2L210.6 463.3L207.3 450.1C205.1 441.5 198.4 434.8 189.8 432.6L176.6 429.3z"/><path fill="currentColor" d="M105.4 421C111.2 416.6 118.7 415 125.8 416.8L189.8 432.8C198.4 435 205.1 441.7 207.3 450.3L223.3 514.3C225.3 522.5 222.9 531.1 217 537.1L153 601.1C146.9 607.2 138 609.6 129.6 607.3C121.2 605 114.8 598.4 112.7 590L100.2 540L50.2 527.5C41.8 525.4 35.2 519 32.9 510.6C30.6 502.2 32.9 493.1 39 487L103 423L105.3 420.9zM588.1 32.5C593.5 31.1 599.3 32.8 603.3 36.7C607.3 40.6 608.9 46.4 607.5 51.9L575.5 179.9C574.1 185.5 569.8 189.9 564.2 191.4C558.6 192.9 552.7 191.4 548.6 187.3L452.6 91.3C448.5 87.2 447 81.3 448.5 75.7C450 70.1 454.4 65.8 460 64.4L588 32.4z"/></svg>