<svg xmlns="http://www.w3.org/2000/svg" viewBox="0 0 640 640"><!--! Font Awesome Pro 7.2.0 by @fontawesome - https://fontawesome.com License - https://fontawesome.com/license (Commercial License) Copyright 2026 Fonticons, Inc. --><path opacity=".4" fill="currentColor" d="M64 96L64 256C64 270.3 73.5 282.9 87.2 286.8C100.9 290.7 115.6 285.1 123.2 272.9L155.2 221.5L155.3 221.3L155.4 221.1C189.1 165.2 250.2 128 320 128C426 128 512 214 512 320C512 426 426 512 320 512C254.8 512 197.2 479.5 162.4 429.7C152.3 415.2 132.3 411.7 117.8 421.8C103.3 431.9 99.8 451.9 109.9 466.4C156.1 532.6 233 576 320 576C461.4 576 576 461.4 576 320C576 178.6 461.4 64 320 64C243.5 64 174.9 97.6 128 150.7L128 96C128 78.3 113.7 64 96 64C78.3 64 64 78.3 64 96z"/><path fill="currentColor" d="M237.3 226.5C244.7 222.8 253.6 223.2 260.6 227.6C267.6 232 272 239.7 272 248L272 392C272 405.3 261.3 416 248 416C234.7 416 224 405.3 224 392L224 286.6C212.7 290.6 200 285.7 194.5 274.8C188.6 262.9 193.4 248.5 205.3 242.6L237.3 226.6zM400 224C413.3 224 424 234.7 424 248C424 261.3 413.3 272 400 272L352 272L352 296L372 296C405.1 296 432 322.9 432 356C432 389.1 405.1 416 372 416L328 416C314.7 416 304 405.3 304 392C304 378.7 314.7 368 328 368L372 368C378.6 368 384 362.6 384 356C384 349.4 378.6 344 372 344L328 344C314.7 344 304 333.3 304 320L304 248C304 234.7 314.7 224 328 224L400 224z"/></svg>