<svg xmlns="http://www.w3.org/2000/svg" viewBox="0 0 640 640"><!--! Font Awesome Pro 7.2.0 by @fontawesome - https://fontawesome.com License - https://fontawesome.com/license (Commercial License) Copyright 2026 Fonticons, Inc. --><path opacity=".4" fill="currentColor" d="M64 320C64 461.4 178.6 576 320 576C407 576 483.9 532.6 530.1 466.3C540.2 451.8 536.7 431.8 522.2 421.7C507.7 411.6 487.7 415.1 477.6 429.6C442.8 479.5 385.2 512 320 512C214 512 128 426 128 320C128 214 214 128 320 128C389.8 128 450.9 165.2 484.6 221.1L484.7 221.3L484.8 221.5L516.8 272.9C524.3 285 539 290.7 552.8 286.8C566.6 282.9 576 270.3 576 256L576 96C576 78.3 561.7 64 544 64C526.3 64 512 78.3 512 96L512 150.7C465.1 97.6 396.5 64 320 64C178.6 64 64 178.6 64 320z"/><path fill="currentColor" d="M244 224C277.1 224 304 250.9 304 284C304 297.5 299.5 310 291.9 320C299.5 330 304 342.5 304 356C304 389.1 277.1 416 244 416L216 416C202.7 416 192 405.3 192 392C192 378.7 202.7 368 216 368L244 368C250.6 368 256 362.6 256 356C256 349.4 250.6 344 244 344L224 344C210.7 344 200 333.3 200 320C200 306.7 210.7 296 224 296L244 296C250.6 296 256 290.6 256 284C256 277.4 250.6 272 244 272L216 272C202.7 272 192 261.3 192 248C192 234.7 202.7 224 216 224L244 224zM408 224C438.9 224 464 249.1 464 280L464 360C464 390.9 438.9 416 408 416L392 416C361.1 416 336 390.9 336 360L336 280C336 249.1 361.1 224 392 224L408 224zM392 272C387.6 272 384 275.6 384 280L384 360C384 364.4 387.6 368 392 368L408 368C412.4 368 416 364.4 416 360L416 280C416 275.6 412.4 272 408 272L392 272z"/></svg>