<svg xmlns="http://www.w3.org/2000/svg" viewBox="0 0 640 640"><!--! Font Awesome Pro 7.2.0 by @fontawesome - https://fontawesome.com License - https://fontawesome.com/license (Commercial License) Copyright 2026 Fonticons, Inc. --><path opacity=".4" fill="currentColor" d="M64 320C64 461.4 178.6 576 320 576C407 576 483.9 532.6 530.1 466.3C540.2 451.8 536.7 431.8 522.2 421.7C507.7 411.6 487.7 415.1 477.6 429.6C442.8 479.5 385.2 512 320 512C214 512 128 426 128 320C128 214 214 128 320 128C389.8 128 450.9 165.2 484.6 221.1L484.7 221.3L484.8 221.5L516.8 272.9C524.3 285 539 290.7 552.8 286.8C566.6 282.9 576 270.3 576 256L576 96C576 78.3 561.7 64 544 64C526.3 64 512 78.3 512 96L512 150.7C465.1 97.6 396.5 64 320 64C178.6 64 64 178.6 64 320z"/><path fill="currentColor" d="M237.3 226.5C244.7 222.8 253.6 223.2 260.6 227.6C267.6 232 272 239.7 272 248L272 392C272 405.3 261.3 416 248 416C234.7 416 224 405.3 224 392L224 286.6C212.7 290.6 200 285.7 194.5 274.8C188.6 262.9 193.4 248.5 205.3 242.6L237.3 226.6zM400 224C413.3 224 424 234.7 424 248C424 261.3 413.3 272 400 272L352 272L352 296L372 296C405.1 296 432 322.9 432 356C432 389.1 405.1 416 372 416L328 416C314.7 416 304 405.3 304 392C304 378.7 314.7 368 328 368L372 368C378.6 368 384 362.6 384 356C384 349.4 378.6 344 372 344L328 344C314.7 344 304 333.3 304 320L304 248C304 234.7 314.7 224 328 224L400 224z"/></svg>