<svg xmlns="http://www.w3.org/2000/svg" viewBox="0 0 640 640"><!--! Font Awesome Pro 7.2.0 by @fontawesome - https://fontawesome.com License - https://fontawesome.com/license (Commercial License) Copyright 2026 Fonticons, Inc. --><path opacity=".4" fill="currentColor" d="M64.1 448C64.1 518.7 121.4 576 192.1 576C192.6 576 193.2 576 193.7 575.9L523.9 553.9C553.3 551.9 576.1 527.5 576.1 498.1L576.2 381.5C576.2 365 568.9 348.2 554.2 337.6C510.8 306.4 457.6 288 400.1 288C357.8 288 317.9 297.9 282.5 315.6L288.2 390C289.2 403.2 279.3 414.7 266.1 415.8C252.9 416.8 241.4 406.9 240.4 393.7C238.8 373.1 234.5 316.5 227.5 224L248.2 224C296.8 224 336.2 184.6 336.2 136L336.2 120C336.2 89.1 311.1 64 280.2 64L184.3 64C145.2 64 109.9 90.1 101.1 129.5C86.7 193.5 64.1 314.9 64.1 448zM224.1 183.2C223.1 170 233 158.5 246.2 157.4C259.4 156.3 270.9 166.3 271.9 179.5L274.9 219.7C266.4 222.4 257.3 224 247.9 224L227.2 224C227.2 224 227.2 224 227.2 224C229.1 248.6 230.9 273.2 232.8 297.8C232.7 297.4 232.6 297 232.6 296.6L224 183.2z"/><path fill="currentColor" d="M288.1 390C289.1 403.2 279.2 414.7 266 415.8C252.8 416.8 241.3 406.9 240.3 393.7L236.6 344.8C250.8 333.6 266.2 323.8 282.5 315.6L288.2 390zM246.2 157.5C259.4 156.5 270.9 166.4 271.9 179.6L274.9 219.8C266.4 222.5 257.3 224.1 247.9 224.1L227.2 224.1L232.8 297.9C232.7 297.5 232.6 297.1 232.6 296.7L224 183.3C223 170.1 232.9 158.6 246.1 157.5z"/></svg>