<svg xmlns="http://www.w3.org/2000/svg" viewBox="0 0 640 640"><!--! Font Awesome Pro 7.2.0 by @fontawesome - https://fontawesome.com License - https://fontawesome.com/license (Commercial License) Copyright 2026 Fonticons, Inc. --><path opacity=".4" fill="currentColor" d="M97.7 181C99.6 182.2 101.5 183.7 103.2 185.4L143.6 225.8C219 157.4 335.6 159.5 408.3 232.3C481.1 305.1 483.2 421.7 414.8 497L455.2 537.4C456.9 539.1 458.3 540.9 459.6 542.8C553.5 442.4 551.5 284.9 453.6 187C355.7 89.1 198 87 97.7 181z"/><path fill="currentColor" d="M57.9 185.4C70.4 172.9 90.7 172.9 103.2 185.4L455.2 537.4C467.7 549.9 467.7 570.2 455.2 582.7C442.7 595.2 422.4 595.2 409.9 582.7L57.9 230.7C45.4 218.2 45.4 197.9 57.9 185.5z"/></svg>