<svg xmlns="http://www.w3.org/2000/svg" viewBox="0 0 640 640"><!--! Font Awesome Pro 7.2.0 by @fontawesome - https://fontawesome.com License - https://fontawesome.com/license (Commercial License) Copyright 2026 Fonticons, Inc. --><path opacity=".4" fill="currentColor" d="M115.9 145.5L124.5 176L515.5 176L524.1 145.5C526.5 137.1 524.1 128.1 518 122C511.9 115.9 502.9 113.5 494.5 115.9L434.7 132.8C430.4 134 425.9 131.4 424.8 127.1L409.5 66.8C407.4 58.4 400.8 51.8 392.4 49.5C384 47.2 375.1 49.7 369 56L325.7 100.5C322.6 103.7 317.4 103.7 314.3 100.5L270.9 56C264.8 49.8 255.9 47.3 247.5 49.6C240.2 51.6 234.2 56.9 231.4 63.8L230.4 66.9L215.2 127.1C214.1 131.5 209.6 134.1 205.3 132.9L145.5 115.9C137.1 113.5 128.1 115.9 122 122C115.9 128.1 113.5 137.1 115.9 145.5zM115.9 494.5C113.5 502.9 115.9 511.9 122 518C128.1 524.1 137.1 526.5 145.5 524.1L205.3 507.2C209.6 506 214.1 508.6 215.2 512.9L230.4 573.1C232.5 581.5 239.1 588.2 247.5 590.4C255.9 592.6 264.8 590.2 270.9 583.9L314.2 539.4C317.3 536.2 322.5 536.2 325.6 539.4L369.1 584C375.2 590.2 384.1 592.7 392.5 590.5C400.9 588.3 407.4 581.6 409.5 573.2L424.8 513C425.9 508.7 430.4 506.1 434.7 507.3L494.5 524.2C502.9 526.6 511.9 524.2 518 518.1C524.1 512 526.5 503 524.1 494.6L515.5 464.1L124.5 464.1L115.9 494.6z"/><path fill="currentColor" d="M184 224C197.3 224 208 234.7 208 248L208 392C208 402.9 200.6 412.5 190 415.2C179.4 417.9 168.3 413.2 163 403.6L128 340.6L128 392C128 405.3 117.3 416 104 416C90.7 416 80 405.3 80 392L80 248L80.3 244C81.9 234.8 88.7 227.2 97.9 224.8C108.5 222.1 119.6 226.8 124.9 236.4L159.9 299.4L159.9 248C159.9 234.7 170.6 224 183.9 224zM352 224C365.3 224 376 234.7 376 248C376 261.3 365.3 272 352 272L296 272L296 296L336 296C349.3 296 360 306.7 360 320C360 333.3 349.3 344 336 344L296 344L296 368L352 368C365.3 368 376 378.7 376 392C376 405.3 365.3 416 352 416L272 416C258.7 416 248 405.3 248 392L248 248C248 234.7 258.7 224 272 224L352 224zM536 224C549.3 224 560 234.7 560 248L560 328.9C560 342.6 556.8 356 550.7 368.2L533.4 402.7C529.6 410.3 522 415.4 513.4 416C505.9 416.5 498.7 413.4 493.9 407.9L492 405.4L480 387.4L468 405.4C463.3 412.5 455.1 416.6 446.5 416.1C437.9 415.6 430.4 410.5 426.5 402.8L409.2 368.3C403.1 356.1 399.9 342.6 399.9 329L399.9 248.1C399.9 234.8 410.6 224.1 423.9 224.1C437.2 224.1 447.9 234.8 447.9 248.1L447.9 329C447.9 334.2 449 339.4 451 344.2L460 330.8C464.5 324 472 320 480 320C488 320 495.5 324 500 330.7L508.9 344.1C510.9 339.3 512 334.1 512 328.9L512 248C512 234.7 522.7 224 536 224z"/></svg>