<svg xmlns="http://www.w3.org/2000/svg" viewBox="0 0 640 640"><!--! Font Awesome Pro 7.2.0 by @fontawesome - https://fontawesome.com License - https://fontawesome.com/license (Commercial License) Copyright 2026 Fonticons, Inc. --><path opacity=".4" fill="currentColor" d="M32 355.8L32 384C32 418.4 45.6 449.7 67.8 472.7C70.4 474.2 72.9 475.8 75.4 477.6C79.1 480.4 81.9 478.8 86.1 476.9C91.8 474.3 99 470 107.8 463.4C135.3 442.7 167.7 432.2 200.1 432C233.2 431.8 266.4 442.2 294.5 463.4C316.6 480 323.6 480 345.7 463.4C373.2 442.7 405.6 432.2 438 432C471.1 431.8 504.3 442.2 532.4 463.4C539.3 468.6 545.2 472.4 550.4 475.1C555.2 477.6 560.1 481.1 564.7 477.6C567.1 475.8 569.7 474.1 572.2 472.7C594.3 449.7 608 418.5 608 384L608 355.8C608 332 583 316.5 561.7 327.2L552.5 331.8C525.8 345.1 496.4 352.1 466.6 352.1L173.3 352.1C143.5 352.1 114.1 345.1 87.5 331.8L78.3 327.2C57.1 316.5 32 332 32 355.8z"/><path fill="currentColor" d="M374.5 501.7C412.9 472.7 465.1 472.7 503.5 501.7C520.3 514.4 536.4 523.2 551.3 526.3C565 529.1 578.7 527.2 593.6 516C604.2 508 619.2 510.2 627.2 520.7C635.2 531.3 633.1 546.4 622.5 554.3C596.1 574.1 568.3 578.7 541.8 573.4C516.5 568.3 493.7 554.5 474.6 540.1C453.3 524 424.7 524 403.4 540.1C379.2 558.4 351.1 576 320 576C289 576 260.9 558.3 236.6 540.1C215.3 524 186.7 524 165.4 540.1C141.7 558 111.3 575.6 77.4 575.4C57 575.3 36.7 568.7 17.6 554.3C7 546.3 4.9 531.3 12.9 520.7C20.9 510.1 35.9 508 46.5 516C57.8 524.5 68.1 527.4 77.7 527.5C95.3 527.6 115 518.1 136.6 501.8C175 472.8 227.2 472.8 265.6 501.8C289.6 519.9 306.3 528.1 320.1 528.1C333.8 528.1 350.6 519.9 374.6 501.8zM219.6 192C232.8 192 245.7 196.4 256.2 204.5L384.1 304L160.1 304L160.1 251.6C160.1 218.7 186.8 192 219.7 192zM208 160C181.5 160 160 138.5 160 112C160 85.5 181.5 64 208 64C234.5 64 256 85.5 256 112C256 138.5 234.5 160 208 160z"/></svg>