<svg xmlns="http://www.w3.org/2000/svg" viewBox="0 0 640 640"><!--! Font Awesome Pro 7.2.0 by @fontawesome - https://fontawesome.com License - https://fontawesome.com/license (Commercial License) Copyright 2026 Fonticons, Inc. --><path opacity=".4" fill="currentColor" d="M128.9 149.1C134 119.5 159.5 96.8 190.4 96C159.5 96.8 134 119.4 128.9 149.1zM192 160L192 217.3C238.9 236.3 272 282.3 272 336C272 363.7 263.2 389.4 248.2 410.4C268.6 418.7 286.5 431.7 300.9 448L352.1 448L352.1 416C352.1 398.3 366.4 384 384.1 384L480.1 384C497.8 384 512.1 398.3 512.1 416L512.1 448L544.1 448L544.1 160L192.1 160z"/><path fill="currentColor" d="M192 448C245 448 288 491 288 544C288 561.7 273.7 576 256 576L32 576C14.3 576 0 561.7 0 544C0 491 43 448 96 448L192 448zM544 96C579.3 96 608 124.7 608 160L608 448C608 481.1 582.8 508.4 550.5 511.7L544 512L332.9 512C327.8 487.8 316.6 465.9 300.8 448L544 448L544 160L192 160L192 217.3C177.2 211.3 161 208 144 208C138.6 208 133.2 208.3 128 209L128 160C128 124.7 156.7 96 192 96L544 96zM144 416C99.8 416 64 380.2 64 336C64 291.8 99.8 256 144 256C188.2 256 224 291.8 224 336C224 380.2 188.2 416 144 416z"/></svg>