<svg xmlns="http://www.w3.org/2000/svg" viewBox="0 0 640 640"><!--! Font Awesome Pro 7.2.0 by @fontawesome - https://fontawesome.com License - https://fontawesome.com/license (Commercial License) Copyright 2026 Fonticons, Inc. --><path opacity=".4" fill="currentColor" d="M16.5 256C16.5 261.3 19.2 266.3 23.6 269.3L94 316.7L77.7 400C76.7 405.2 78.3 410.6 82.1 414.4C85.9 418.1 91.2 419.8 96.4 418.8L179.6 402.5L182 406C178.3 394 176.3 381.3 176.3 368.1C176.3 355.5 178.2 343.4 181.5 331.9C158.9 314.3 144.3 287 144.3 256.1C144.3 203.1 187.3 160.1 240.3 160.1C264.7 160.1 287 169.3 303.9 184.3C316.3 179.1 330 176.1 344.3 176.1C350.3 176.1 356.2 176.6 362 177.6C371.6 168.9 382.5 161.5 394.4 156L403 112.1C404 106.9 402.4 101.5 398.6 97.7C394.8 94 389.5 92.3 384.3 93.3L301 109.6L253.7 39.2C250.7 34.8 245.7 32.1 240.4 32.1C235.8 32.1 231.4 34.1 228.3 37.6L227.1 39.2L179.8 109.6L96.6 93.3C91.4 92.3 86 94 82.2 97.7C78.9 101 77.3 105.5 77.6 110.1L77.8 112.1L94.1 195.3L23.7 242.7C19.3 245.7 16.7 250.6 16.7 255.9zM192.3 256C192.3 268.2 196.9 279.4 204.5 287.8C215.1 274.6 228.3 263.6 243.3 255.5C247 240.1 254.2 226.1 264 214.2C257 210.3 249 208 240.4 208C213.9 208 192.4 229.5 192.4 256zM233.5 576.4C229.3 589 236.1 602.6 248.7 606.7C261.3 610.8 274.9 604.1 279.1 591.5L300.5 527.4C304.7 514.8 297.9 501.2 285.3 497C272.7 492.8 259.2 499.6 255 512.2L233.6 576.4zM353.5 576.4C349.3 589 356.1 602.6 368.7 606.7C381.3 610.8 394.9 604.1 399.1 591.5L420.5 527.4C424.7 514.8 417.9 501.2 405.3 497C392.7 492.8 379.2 499.6 375 512.2L353.6 576.4zM473.5 576.4C469.3 589 476.1 602.6 488.7 606.7C501.3 610.8 514.9 604.1 519.1 591.5L540.5 527.4C544.7 514.8 537.9 501.2 525.3 497C512.7 492.8 499.2 499.6 495 512.2L473.6 576.4z"/><path fill="currentColor" d="M448.3 192C417.5 192 390.8 209.4 377.5 234.9C368.2 228.1 356.8 224 344.3 224C313.4 224 288.3 249.1 288.3 280C288.3 283.2 288.6 286.4 289.2 289.5C252.3 296.6 224.3 329 224.3 368C224.3 409.4 255.8 443.5 296.1 447.6L304.3 448L496.3 448C540.5 448 576.3 412.2 576.3 368C576.3 334.1 555.1 305.1 525.3 293.5C527.2 286.7 528.3 279.5 528.3 272C528.3 227.8 492.5 192 448.3 192z"/></svg>