<svg xmlns="http://www.w3.org/2000/svg" viewBox="0 0 640 640"><!--! Font Awesome Pro 7.2.0 by @fontawesome - https://fontawesome.com License - https://fontawesome.com/license (Commercial License) Copyright 2026 Fonticons, Inc. --><path opacity=".4" fill="currentColor" d="M48.2 256C48.2 261.3 50.9 266.3 55.3 269.3L90.2 292.8C110.3 279.7 134.3 272.1 160.1 272.1C166 272.1 171.9 272.5 177.6 273.3C176.6 267.7 176.1 262 176.1 256.1C176.1 203.1 219.1 160.1 272.1 160.1C310.5 160.1 343.5 182.7 358.8 215.2C376.2 203 396.7 195.1 418.9 192.8L434.7 112.2C435.7 107 434.1 101.6 430.3 97.8C426.5 94.1 421.2 92.4 416 93.4L332.7 109.7L285.4 39.3C282.4 34.9 277.4 32.2 272.1 32.2C267.4 32.2 263.1 34.2 260 37.7L258.8 39.3L211.5 109.7L128.3 93.4C123.1 92.4 117.7 94 113.9 97.8C110.6 101.1 109 105.6 109.3 110.2L109.5 112.2L125.8 195.4L55.4 242.8C51 245.8 48.4 250.7 48.4 256.1zM224 256C224 280 241.6 299.7 264.5 303.3C277.9 285.7 296 272 316.9 263.9C317.8 262 318.8 260.2 319.8 258.4C319.8 257.6 319.9 256.8 319.9 256C319.9 229.5 298.4 208 271.9 208C245.4 208 223.9 229.5 223.9 256z"/><path fill="currentColor" d="M160 320C190.8 320 217.5 337.4 230.8 362.9C240.1 356.1 251.5 352 264 352C294.9 352 320 377.1 320 408C320 411.2 319.7 414.4 319.1 417.5C356 424.6 384 457 384 496C384 537.4 352.5 571.5 312.2 575.6L304 576L112 576C67.8 576 32 540.2 32 496C32 462.1 53.2 433.1 83 421.5C81.1 414.7 80 407.5 80 400C80 355.8 115.8 320 160 320zM432 240C464.9 240 493.1 259.9 505.4 288.2C507.6 288.1 509.8 288 512 288C565 288 608 331 608 384C608 437 565 480 512 480L430.9 480C425.7 438.3 400.5 402.8 365.1 383.5C358.4 355.8 340.7 332.5 316.8 318.4C327.2 310.6 339.9 305.5 353.6 304.3C360.9 267.6 393.2 240 432 240z"/></svg>