<svg xmlns="http://www.w3.org/2000/svg" viewBox="0 0 640 640"><!--! Font Awesome Pro 7.2.0 by @fontawesome - https://fontawesome.com License - https://fontawesome.com/license (Commercial License) Copyright 2026 Fonticons, Inc. --><path opacity=".4" fill="currentColor" d="M232.4 209.8C259.6 213.9 284.6 224.9 305.5 240.9C312.7 195 352.5 160 400.3 160C453.3 160 496.3 203 496.3 256C496.3 275.1 490.7 292.8 481.1 307.7C487 318.8 491.4 330.7 493.9 343.4C520.7 352.3 544 369 561.2 390.7L546.7 316.6L617.1 269.3C621.5 266.3 624.1 261.4 624.1 256.1C624.1 250.8 621.4 245.8 617 242.8L546.6 195.5L562.9 112.2C563.9 107 562.3 101.6 558.5 97.8C554.7 94.1 549.4 92.4 544.2 93.4L460.9 109.7L413.6 39.3C410.6 34.9 405.6 32.2 400.3 32.2C395.7 32.2 391.3 34.2 388.2 37.7L387 39.3L339.7 109.7L256.5 93.4C251.3 92.4 245.9 94 242.1 97.8C238.8 101.1 237.2 105.6 237.5 110.2L237.8 112.2L254.1 195.4L232.6 209.9zM354.8 240.7C359.2 240.2 363.7 240 368.3 240C398 240 425.2 250.2 446.9 267.1C447.7 263.5 448.3 259.8 448.3 256C448.3 229.5 426.8 208 400.3 208C379.1 208 361.2 221.7 354.8 240.7z"/><path fill="currentColor" d="M208.3 256C251.4 256 288.8 280.4 307.5 316.1C322.2 298.9 343.9 288 368.3 288C412.5 288 448.3 323.8 448.3 368C448.3 373.5 447.7 378.9 446.7 384C447.2 384 447.8 384 448.3 384C501.3 384 544.3 427 544.3 480C544.3 533 501.3 576 448.3 576L128.3 576C75.3 576 32.3 533 32.3 480C32.3 437.5 60 401.5 98.3 388.8C97 382 96.3 375.1 96.3 368C96.3 306.1 146.4 256 208.3 256z"/></svg>