<svg xmlns="http://www.w3.org/2000/svg" viewBox="0 0 640 640"><!--! Font Awesome Pro 7.2.0 by @fontawesome - https://fontawesome.com License - https://fontawesome.com/license (Commercial License) Copyright 2026 Fonticons, Inc. --><path opacity=".4" fill="currentColor" d="M64 224L64 480C64 497.7 78.3 512 96 512C113.7 512 128 497.7 128 480L128 224L64 224zM288 224L288 480C288 497.7 302.3 512 320 512C337.7 512 352 497.7 352 480L352 464L512 464L512 480C512 497.7 526.3 512 544 512C561.7 512 576 497.7 576 480L576 224L288 224zM352 312C352 298.7 362.7 288 376 288L488 288C501.3 288 512 298.7 512 312C512 325.3 501.3 336 488 336L376 336C362.7 336 352 325.3 352 312z"/><path fill="currentColor" d="M488 288C501.3 288 512 298.7 512 312C512 325.3 501.3 336 488 336L376 336C362.7 336 352 325.3 352 312C352 298.7 362.7 288 376 288L488 288zM576 128C593.7 128 608 142.3 608 160L608 192C608 209.7 593.7 224 576 224L64 224C46.3 224 32 209.7 32 192L32 160C32 142.3 46.3 128 64 128L576 128z"/></svg>