<svg xmlns="http://www.w3.org/2000/svg" viewBox="0 0 640 640"><!--! Font Awesome Pro 7.2.0 by @fontawesome - https://fontawesome.com License - https://fontawesome.com/license (Commercial License) Copyright 2026 Fonticons, Inc. --><path opacity=".4" fill="currentColor" d="M128 224L128 272L512 272L512 224L128 224zM128 416L128 464L512 464L512 416L128 416z"/><path fill="currentColor" d="M512 544C512 561.7 497.7 576 480 576C462.3 576 448 561.7 448 544L192 544C192 561.7 177.7 576 160 576C142.3 576 128 561.7 128 544L128 464L512 464L512 544zM512 416L128 416L128 272L512 272L512 416zM296 320C282.7 320 272 330.7 272 344C272 357.3 282.7 368 296 368L344 368C357.3 368 368 357.3 368 344C368 330.7 357.3 320 344 320L296 320zM464 64C490.5 64 512 85.5 512 112L512 224L128 224L128 112C128 85.5 149.5 64 176 64L464 64zM296 128C282.7 128 272 138.7 272 152C272 165.3 282.7 176 296 176L344 176C357.3 176 368 165.3 368 152C368 138.7 357.3 128 344 128L296 128z"/></svg>