<svg xmlns="http://www.w3.org/2000/svg" viewBox="0 0 640 640"><!--! Font Awesome Pro 7.2.0 by @fontawesome - https://fontawesome.com License - https://fontawesome.com/license (Commercial License) Copyright 2026 Fonticons, Inc. --><path opacity=".4" fill="currentColor" d="M32 320C32 328.4 36.4 336.3 43.7 340.6L136.3 396.1L110.1 500.8C108.1 509 110.4 517.7 116.4 523.6C122.4 529.5 131 532 139.2 530L243.9 503.7L299.4 596.4C303.7 603.6 311.6 608.1 320 608.1C328.4 608.1 336.3 603.7 340.6 596.4L392.9 509C369 498 347.6 482.5 329.6 463.7C326.4 463.9 323.2 464.1 320 464.1C240.5 464.1 176 399.6 176 320.1C176 240.6 240.5 176.1 320 176.1C323.2 176.1 326.5 176.2 329.7 176.4C347.7 157.6 369.1 142.2 393 131.1L340.6 43.6C336.3 36.4 328.4 31.9 320 31.9C312.6 31.9 305.7 35.3 301.2 41L299.4 43.6L243.9 136.2L139.2 110C131 108 122.4 110.4 116.4 116.3C110.4 122.2 108 131 110 139.1L136.2 243.8L43.6 299.3C36.4 303.7 32 311.6 32 320zM224 320C224 363.8 253.4 400.7 293.5 412.2C279.7 384.4 272 353.1 272 320C272 286.9 279.8 255.6 293.5 227.7C253.4 239.2 224 276.2 224 320z"/><path fill="currentColor" d="M320 320C320 231.6 391.6 160 480 160C568.4 160 640 231.6 640 320C640 408.4 568.4 480 480 480C391.6 480 320 408.4 320 320z"/></svg>