<svg xmlns="http://www.w3.org/2000/svg" viewBox="0 0 640 640"><!--! Font Awesome Pro 7.2.0 by @fontawesome - https://fontawesome.com License - https://fontawesome.com/license (Commercial License) Copyright 2026 Fonticons, Inc. --><path opacity=".4" fill="currentColor" d="M51.7 462.1L91.7 392.8C98.8 398.7 106.1 404.4 113.6 409.9C118.9 413.8 124.6 417.7 130.5 421.5L93.3 486.1C86.7 497.6 72 501.5 60.5 494.9C49 488.3 45.1 473.6 51.7 462.1zM169.3 526.3L189 452.8C203.2 458.9 218.4 464.2 234.5 468.6L215.7 538.7C212.3 551.5 199.1 559.1 186.3 555.7C173.5 552.3 165.9 539.1 169.3 526.3zM296.5 479.2C304.3 479.8 312.3 480.1 320.5 480.1C328.7 480.1 336.7 479.8 344.5 479.2L344.5 552.1C344.5 565.3 333.7 576.1 320.5 576.1C307.3 576.1 296.5 565.3 296.5 552.1L296.5 479.2zM406.6 468.6C422.7 464.3 437.9 458.9 452.1 452.8L471.8 526.2C475.2 539 467.6 552.2 454.8 555.6C442 559 428.8 551.4 425.4 538.6L406.6 468.5zM510.6 421.5C516.5 417.7 522.1 413.8 527.4 409.9C535 404.4 542.3 398.6 549.4 392.7L589.5 462.1C596.1 473.6 592.2 488.3 580.7 494.9C569.2 501.5 554.5 497.6 547.9 486.1L510.6 421.5z"/><path fill="currentColor" d="M45.3 294.4C59.4 283.8 79.4 286.6 90.1 300.7C90.6 301.4 112.8 330.1 151.3 358.1C191.8 387.5 249.3 416 320.5 416C391.7 416 449.2 387.6 489.7 358.1C528.3 330 550.5 301.2 551 300.7C561.6 286.6 581.6 283.8 595.7 294.4C609.8 305 612.7 325 602.1 339.2C580 366.1 555.5 389.4 527.3 409.9C479.8 444.5 409.3 480 320.5 480C231.7 480 161.2 444.5 113.7 409.9C85.5 389.4 61 366.1 38.9 339.2C28.3 325.1 31.2 305 45.3 294.4z"/></svg>