<svg xmlns="http://www.w3.org/2000/svg" viewBox="0 0 640 640"><!--! Font Awesome Pro 7.2.0 by @fontawesome - https://fontawesome.com License - https://fontawesome.com/license (Commercial License) Copyright 2026 Fonticons, Inc. --><path opacity=".4" fill="currentColor" d="M96 128L96 512C96 547.3 124.7 576 160 576L304 576L304 464C304 428.7 332.7 400 368 400L480 400L480 234.5C480 217.5 473.3 201.3 461.3 189.3L354.7 82.8C342.7 70.8 326.5 64 309.5 64L160 64C124.7 64 96 92.7 96 128zM304 122.5L421.5 240L328 240C314.7 240 304 229.3 304 216L304 122.5z"/><path fill="currentColor" d="M432 444C443 444 452 453 452 464L452 560C452 588.7 428.7 612 400 612C371.3 612 348 588.7 348 560L348 544C348 533 357 524 368 524C379 524 388 533 388 544L388 560C388 566.6 393.4 572 400 572C406.6 572 412 566.6 412 560L412 464C412 453 421 444 432 444zM552 444C563 444 572 453 572 464C572 475 563 484 552 484L528 484C521.4 484 516 489.4 516 496C516 502.6 521.4 508 528 508C556.7 508 580 531.3 580 560C580 588.7 556.7 612 528 612L496 612C485 612 476 603 476 592C476 581 485 572 496 572L528 572C534.6 572 540 566.6 540 560C540 553.4 534.6 548 528 548C499.3 548 476 524.7 476 496C476 467.3 499.3 444 528 444L552 444z"/></svg>