<svg xmlns="http://www.w3.org/2000/svg" viewBox="0 0 640 640"><!--! Font Awesome Pro 7.2.0 by @fontawesome - https://fontawesome.com License - https://fontawesome.com/license (Commercial License) Copyright 2026 Fonticons, Inc. --><path opacity=".4" fill="currentColor" d="M64 128L64 512C64 547.3 92.7 576 128 576L208 576L208 464C208 428.7 236.7 400 272 400L448 400L448 234.5C448 217.5 441.3 201.3 429.3 189.3L322.7 82.8C310.8 70.8 294.5 64 277.5 64L128 64C92.7 64 64 92.7 64 128zM272 122.5L389.5 240L296 240C282.7 240 272 229.3 272 216L272 122.5z"/><path fill="currentColor" d="M312 444C336.3 444 356 463.7 356 488L356 496C356 507 347 516 336 516C325 516 316 507 316 496L316 488C316 485.8 314.2 484 312 484L296 484C293.8 484 292 485.8 292 488L292 568C292 570.2 293.8 572 296 572L312 572C314.2 572 316 570.2 316 568L316 560C316 549 325 540 336 540C347 540 356 549 356 560L356 568C356 592.3 336.3 612 312 612L296 612C271.7 612 252 592.3 252 568L252 488C252 463.7 271.7 444 296 444L312 444zM456 444C467 444 476 453 476 464C476 475 467 484 456 484L432 484C425.4 484 420 489.4 420 496C420 502.6 425.4 508 432 508C460.7 508 484 531.3 484 560C484 588.7 460.7 612 432 612L400 612C389 612 380 603 380 592C380 581 389 572 400 572L432 572C438.6 572 444 566.6 444 560C444 553.4 438.6 548 432 548C403.3 548 380 524.7 380 496C380 467.3 403.3 444 432 444L456 444zM584 444C595 444 604 453 604 464C604 475 595 484 584 484L560 484C553.4 484 548 489.4 548 496C548 502.6 553.4 508 560 508C588.7 508 612 531.3 612 560C612 588.7 588.7 612 560 612L528 612C517 612 508 603 508 592C508 581 517 572 528 572L560 572C566.6 572 572 566.6 572 560C572 553.4 566.6 548 560 548C531.3 548 508 524.7 508 496C508 467.3 531.3 444 560 444L584 444z"/></svg>