<svg xmlns="http://www.w3.org/2000/svg" viewBox="0 0 640 640"><!--! Font Awesome Pro 7.2.0 by @fontawesome - https://fontawesome.com License - https://fontawesome.com/license (Commercial License) Copyright 2026 Fonticons, Inc. --><path opacity=".4" fill="currentColor" d="M64 128L64 512C64 547.3 92.7 576 128 576L144 576L144 464C144 428.7 172.7 400 208 400L448 400L448 234.5C448 217.5 441.3 201.3 429.3 189.3L322.7 82.8C310.8 70.8 294.5 64 277.5 64L128 64C92.7 64 64 92.7 64 128zM272 122.5L389.5 240L296 240C282.7 240 272 229.3 272 216L272 122.5z"/><path fill="currentColor" d="M208 444C219 444 228 453 228 464L228 592C228 603 219 612 208 612C197 612 188 603 188 592L188 464C188 453 197 444 208 444zM312 444C336.3 444 356 463.7 356 488L356 496C356 507 347 516 336 516C325 516 316 507 316 496L316 488C316 485.8 314.2 484 312 484L296 484C293.8 484 292 485.8 292 488L292 568C292 570.2 293.8 572 296 572L312 572C314.2 572 316 570.2 316 568L316 560C316 549 325 540 336 540C347 540 356 549 356 560L356 568C356 592.3 336.3 612 312 612L296 612C271.7 612 252 592.3 252 568L252 488C252 463.7 271.7 444 296 444L312 444zM464 444C475 444 484 453 484 464L484 592L483.7 595.4C482.4 603.2 476.5 609.6 468.6 611.5C459.6 613.6 450.3 609.3 446.1 601L420 548.7L420 592C420 603 411 612 400 612C389 612 380 603 380 592L380 464L380.3 460.6C381.6 452.8 387.5 446.4 395.4 444.5C404.4 442.4 413.7 446.7 417.9 455L444 507.2L444 463.9C444 452.9 453 443.9 464 443.9zM584 444C595 444 604 453 604 464C604 475 595 484 584 484L560 484C553.4 484 548 489.4 548 496C548 502.6 553.4 508 560 508C588.7 508 612 531.3 612 560C612 588.7 588.7 612 560 612L528 612C517 612 508 603 508 592C508 581 517 572 528 572L560 572C566.6 572 572 566.6 572 560C572 553.4 566.6 548 560 548C531.3 548 508 524.7 508 496C508 467.3 531.3 444 560 444L584 444z"/></svg>