<svg xmlns="http://www.w3.org/2000/svg" viewBox="0 0 640 640"><!--! Font Awesome Pro 7.2.0 by @fontawesome - https://fontawesome.com License - https://fontawesome.com/license (Commercial License) Copyright 2026 Fonticons, Inc. --><path opacity=".4" fill="currentColor" d="M64 128L64 512C64 541.8 84.4 566.8 112 573.9L112 464C112 428.7 140.7 400 176 400L448 400L448 234.5C448 217.5 441.3 201.3 429.3 189.3L322.7 82.8C310.8 70.8 294.5 64 277.5 64L128 64C92.7 64 64 92.7 64 128zM272 122.5L389.5 240L296 240C282.7 240 272 229.3 272 216L272 122.5z"/><path fill="currentColor" d="M240 444C251 444 260 453 260 464L260 592C260 603 251 612 240 612C229 612 220 603 220 592L220 548L196 548L196 592C196 603 187 612 176 612C165 612 156 603 156 592L156 464C156 453 165 444 176 444C187 444 196 453 196 464L196 508L220 508L220 464C220 453 229 444 240 444zM352 444C363 444 372 453 372 464C372 475 363 484 352 484L340 484L340 592C340 603 331 612 320 612C309 612 300 603 300 592L300 484L288 484C277 484 268 475 268 464C268 453 277 444 288 444L352 444zM478.8 453.7C483.4 446 492.6 442.3 501.3 444.7C510 447.1 516 455 516 464L516 592C516 603 507 612 496 612C485 612 476 603 476 592L476 536.2L465.2 554.3C461.6 560.3 455.1 564 448 564C440.9 564 434.5 560.3 430.8 554.3L420 536.2L420 592C420 603 411 612 400 612C389 612 380 603 380 592L380 464C380 455 386 447.1 394.7 444.7C403.4 442.3 412.6 446 417.2 453.7L448 505.1L478.8 453.7zM560 444C571 444 580 453 580 464L580 572L592 572C603 572 612 581 612 592C612 603 603 612 592 612L560 612C549 612 540 603 540 592L540 464C540 453 549 444 560 444z"/></svg>