<svg xmlns="http://www.w3.org/2000/svg" viewBox="0 0 640 640"><!--! Font Awesome Pro 7.2.0 by @fontawesome - https://fontawesome.com License - https://fontawesome.com/license (Commercial License) Copyright 2026 Fonticons, Inc. --><path opacity=".4" fill="currentColor" d="M64 320C64 330.6 64.6 341.1 65.9 351.3C67.2 361.6 75.6 369.4 85.9 370.7L108.7 373.5C115.1 374.3 120.4 378.9 122.4 385.1C125.5 394.5 129.3 403.7 133.7 412.5C136.6 418.3 136.1 425.2 132.2 430.3L117.9 448.8C111.5 457 111.1 468.4 117.4 476.6C130.3 493.3 145.2 508.3 161.8 521.3C170 527.7 181.5 527.3 189.7 520.9L207.7 506.9C212.8 502.9 219.9 502.4 225.7 505.4C240.2 512.8 255.8 518.5 272 522.4L272 464.1C272 428.8 300.7 400.1 336 400.1L512 400.1C514 395.2 515.9 390.2 517.6 385.1C519.6 378.9 524.9 374.3 531.3 373.5L554.1 370.7C564.4 369.4 572.9 361.6 574.2 351.3C574.4 349.6 574.6 348 574.8 346.3L574.8 293.9C574.6 292.2 574.4 290.5 574.2 288.9C572.9 278.6 564.5 270.8 554.1 269.5L531.3 266.7C524.9 265.9 519.6 261.3 517.6 255.1C514.2 244.9 510.1 235 505.3 225.6C502.3 219.8 502.8 212.8 506.8 207.6L520.8 189.6C527.2 181.4 527.6 169.9 521.2 161.7C519.3 159.2 517.3 156.8 515.2 154.4L485.6 124.9C482.7 122.4 479.7 120 476.7 117.7C468.5 111.3 457.1 111.8 448.9 118.1L430.6 132.3C425.5 136.3 418.6 136.7 412.8 133.8C403.5 129.2 393.9 125.2 383.9 122C377.7 120 373 114.7 372.2 108.2L369.4 85.7C368.1 75.3 360.2 66.9 349.9 65.7C340.1 64.5 330.1 63.9 320 63.9C308.9 63.9 297.9 64.6 287.2 66C276.9 67.3 269.2 75.7 267.9 86L265 109.2C264.2 115.6 259.6 120.8 253.5 122.9C243.9 126.1 234.6 130.1 225.7 134.7C219.9 137.7 212.9 137.2 207.7 133.2L189.7 119.2C181.5 112.8 170 112.4 161.8 118.8C145.2 131.8 130.3 146.9 117.4 163.5C111.1 171.7 111.5 183.1 117.9 191.3L132.2 209.6C136.2 214.7 136.6 221.6 133.7 227.4C129.3 236.2 125.6 245.3 122.5 254.7C120.5 260.8 115.2 265.5 108.8 266.3L85.9 269.2C75.6 270.5 67.2 278.3 65.9 288.6C64.6 298.9 64 309.5 64 320.1zM236 320C236 273.6 273.6 236 320 236C366.4 236 404 273.6 404 320C404 331.3 401.7 342.1 397.6 352L336 352C307.4 352 281.3 362.7 261.6 380.3C245.9 365 236 343.7 236 320z"/><path fill="currentColor" d="M376 444C400.3 444 420 463.7 420 488L420 592C420 603 411 612 400 612C389 612 380 603 380 592L380 564L356 564L356 592C356 603 347 612 336 612C325 612 316 603 316 592L316 488C316 463.7 335.7 444 360 444L376 444zM496 444C529.1 444 556 470.9 556 504C556 537.1 529.1 564 496 564L484 564L484 592C484 603 475 612 464 612C453 612 444 603 444 592L444 464C444 453 453 444 464 444L496 444zM592 444C603 444 612 453 612 464L612 592C612 603 603 612 592 612C581 612 572 603 572 592L572 464C572 453 581 444 592 444zM360 484C357.8 484 356 485.8 356 488L356 524L380 524L380 488C380 485.8 378.2 484 376 484L360 484zM484 524L496 524C507 524 516 515 516 504C516 493 507 484 496 484L484 484L484 524z"/></svg>