<svg xmlns="http://www.w3.org/2000/svg" viewBox="0 0 640 640"><!--! Font Awesome Pro 7.2.0 by @fontawesome - https://fontawesome.com License - https://fontawesome.com/license (Commercial License) Copyright 2026 Fonticons, Inc. --><path opacity=".4" fill="currentColor" d="M32 504C32 481.9 49.9 464 72 464L568 464C590.1 464 608 481.9 608 504C608 526.1 590.1 544 568 544L72 544C49.9 544 32 526.1 32 504z"/><path fill="currentColor" d="M384 130.2L384 328C384 341.3 394.7 352 408 352C421.3 352 432 341.3 432 328L432 142.2C517.6 174.2 575 256.7 576 352L576 416L64 416L64 352C64 255.8 122 173.8 208 142.1L208 328C208 341.3 218.7 352 232 352C245.3 352 256 341.3 256 328L256 128C256 110.3 270.3 96 288 96L352 96C369.7 96 384 110.3 384 128L384 130.2z"/></svg>