<svg xmlns="http://www.w3.org/2000/svg" viewBox="0 0 640 640"><!--! Font Awesome Pro 7.2.0 by @fontawesome - https://fontawesome.com License - https://fontawesome.com/license (Commercial License) Copyright 2026 Fonticons, Inc. --><path opacity=".4" fill="currentColor" d="M272.1 423.9L364.9 544L480 544C515.3 544 544 515.3 544 480L544 160C544 124.7 515.3 96 480 96L335.8 96L406 186.9C412.5 195.3 416 205.5 416 216.1C416 226.4 412.7 236.5 406.5 244.7L272.1 423.9zM332.4 423.5L405.1 326.7L476.5 443.6C481 451 481.2 460.3 477 467.8C472.8 475.3 464.7 480 456 480L376.1 480L332.4 423.4z"/><path fill="currentColor" d="M367.9 216.1L233.5 395.3C228.1 402.5 224.8 411.1 224.1 420.1L223.9 423.9L224.1 427.8C224.9 437 228.3 445.7 233.9 453.1L304.2 544L160 544C124.7 544 96 515.3 96 480L96 160C96 124.7 124.7 96 160 96L275.1 96L367.9 216.1zM224 176C197.5 176 176 197.5 176 224C176 250.5 197.5 272 224 272C250.5 272 272 250.5 272 224C272 197.5 250.5 176 224 176z"/></svg>