<svg xmlns="http://www.w3.org/2000/svg" viewBox="0 0 640 640"><!--! Font Awesome Pro 7.2.0 by @fontawesome - https://fontawesome.com License - https://fontawesome.com/license (Commercial License) Copyright 2026 Fonticons, Inc. --><path opacity=".4" fill="currentColor" d="M32 192L32 448L32.3 454.5C35.4 484.6 59.3 508.6 89.4 511.6L95.9 511.9L543.9 511.9L550.4 511.6C580.5 508.5 604.5 484.6 607.5 454.5L607.8 448L607.8 192C607.8 156.7 579.1 128 543.8 128L96 128C60.7 128 32 156.7 32 192zM96 192L544 192L544 448L96 448L96 192zM448 248L448 392C448 405.3 458.7 416 472 416C485.3 416 496 405.3 496 392L496 248C496 234.7 485.3 224 472 224C458.7 224 448 234.7 448 248z"/><path fill="currentColor" d="M176 352C158.3 352 144 337.7 144 320C144 302.3 158.3 288 176 288C193.7 288 208 302.3 208 320C208 337.7 193.7 352 176 352zM272 352C254.3 352 240 337.7 240 320C240 302.3 254.3 288 272 288C289.7 288 304 302.3 304 320C304 337.7 289.7 352 272 352zM368 352C350.3 352 336 337.7 336 320C336 302.3 350.3 288 368 288C385.7 288 400 302.3 400 320C400 337.7 385.7 352 368 352z"/></svg>