<svg xmlns="http://www.w3.org/2000/svg" viewBox="0 0 640 640"><!--! Font Awesome Pro 7.2.0 by @fontawesome - https://fontawesome.com License - https://fontawesome.com/license (Commercial License) Copyright 2026 Fonticons, Inc. --><path opacity=".4" fill="currentColor" d="M68.6 512.2C63.7 547.2 92.8 576.3 127.8 571.4C189.9 562.7 275.4 538.5 361 474.6L353.1 454.8L314.1 415.8C289 435.3 252.7 433.6 229.6 410.6C206.5 387.6 204.8 351.2 224.4 326.1L185.3 287L165.5 279.1C101.6 364.6 77.4 450.1 68.7 512.3zM279.1 165.4L287 185.1L326.1 224.2C351.2 204.7 387.5 206.4 410.6 229.4C433.7 252.4 435.4 288.7 415.8 313.8L454.8 352.8L474.6 360.7C538.5 275.2 562.7 189.7 571.4 127.6C576.3 92.6 547.2 63.5 512.2 68.4C450.1 77.1 364.6 101.3 279 165.2z"/><path fill="currentColor" d="M51.2 47.9C72.4 26.7 106.9 26.7 128.1 47.9L210.2 130C213.6 133.4 216.2 137.4 218 141.8L246.2 212.2L428 394L498.4 422.2C502.8 424 506.8 426.6 510.2 430L592.3 512.1C613.5 533.3 613.5 567.8 592.3 589L589 592.3C567.8 613.5 533.3 613.5 512.1 592.3L430 510.1C426.6 506.7 424 502.7 422.2 498.3L394 427.9L212.2 246.1L141.8 217.9C137.4 216.1 133.4 213.5 130 210.1L47.9 128.1C26.7 106.8 26.7 72.4 47.9 51.1L51.2 47.8z"/></svg>