<svg xmlns="http://www.w3.org/2000/svg" viewBox="0 0 640 640"><!--! Font Awesome Pro 7.2.0 by @fontawesome - https://fontawesome.com License - https://fontawesome.com/license (Commercial License) Copyright 2026 Fonticons, Inc. --><path opacity=".4" fill="currentColor" d="M32 320C32 328.4 36.4 336.3 43.7 340.6L136.3 396.1L110 500.8C108 509 110.3 517.7 116.3 523.6C122.3 529.5 131 532 139.2 530L243.9 503.7L299.4 596.4C303.7 603.6 311.6 608.1 320 608.1C328.4 608.1 336.3 603.7 340.6 596.4L396.1 503.7L500.8 530C509 532 517.7 529.6 523.6 523.7C529.5 517.8 532 509 530 500.8L503.7 396.1L596.4 340.6C603.6 336.3 608.1 328.4 608.1 320C608.1 311.6 603.7 303.7 596.4 299.4L503.7 243.9L530 139.1C532 130.9 529.6 122.3 523.7 116.3C517.8 110.3 509 108 500.9 110L396.1 136.3L340.6 43.6C336.3 36.4 328.4 31.9 320 31.9C312.6 31.9 305.7 35.3 301.2 41L299.4 43.6L243.9 136.2L139.2 110C131 108 122.4 110.4 116.4 116.3C110.4 122.2 108 131 110 139.1L136.2 243.8L43.6 299.3C36.4 303.7 32 311.6 32 320zM176 320C176 314.3 176.4 308.8 177 303.3C177.5 299.2 178.1 295.1 178.9 291C184.7 262.9 198.6 237.7 218.2 218.2C219.8 216.6 221.5 215 223.2 213.4C226.6 210.3 230.2 207.4 233.9 204.6C235 203.8 236.1 203 237.2 202.3C239.9 200.4 242.6 198.6 245.4 196.9C259.3 188.5 274.7 182.4 291.1 179C300.5 177.1 310.2 176.1 320.1 176.1C394 176.1 454.8 231.7 463.1 303.4C463.7 308.9 464.1 314.5 464.1 320.1C464.1 330 463.1 339.8 461.2 349.1C460.7 351.4 460.2 353.8 459.6 356.1C459 358.4 458.4 360.7 457.7 362.9C453.5 376.4 447.3 389.1 439.6 400.6C435.7 406.3 431.4 411.8 426.8 416.9C425.2 418.6 423.6 420.3 422 421.9C415.5 428.4 408.3 434.3 400.7 439.5C391.1 446 380.7 451.3 369.7 455.4C367.5 456.2 365.3 456.9 363 457.6C358.5 459 353.9 460.2 349.2 461.2C339.8 463.1 330.1 464.1 320.2 464.1C315.2 464.1 310.3 463.8 305.5 463.3C232.9 455.9 176.2 394.6 176.2 320.1z"/><path fill="currentColor" d="M320 224C267 224 224 267 224 320C224 373 267 416 320 416C347.6 416 372.4 404.4 389.9 385.8C393.9 381.5 395.3 375.4 393.4 369.8C391.5 364.2 386.8 360.1 381 359.1C350.9 353.9 328 327.6 328 296C328 279 334.6 263.6 345.4 252.1C349.4 247.8 350.8 241.7 348.9 236.1C347 230.5 342.3 226.4 336.5 225.4C331.1 224.5 325.6 224 320 224z"/></svg>