<svg xmlns="http://www.w3.org/2000/svg" viewBox="0 0 640 640"><!--! Font Awesome Pro 7.2.0 by @fontawesome - https://fontawesome.com License - https://fontawesome.com/license (Commercial License) Copyright 2026 Fonticons, Inc. --><path opacity=".4" fill="currentColor" d="M64 192L64 448C64 483.3 92.7 512 128 512L512 512C547.3 512 576 483.3 576 448L576 192C576 156.7 547.3 128 512 128L128 128C92.7 128 64 156.7 64 192zM112 344C112 330.7 122.7 320 136 320L184 320C197.3 320 208 330.7 208 344C208 357.3 197.3 368 184 368L136 368C122.7 368 112 357.3 112 344zM112 440C112 426.7 122.7 416 136 416L184 416C197.3 416 208 426.7 208 440C208 453.3 197.3 464 184 464L136 464C122.7 464 112 453.3 112 440zM256 208C256 190.3 270.3 176 288 176L336 176C353.7 176 368 190.3 368 208L368 432C368 449.7 353.7 464 336 464L288 464C270.3 464 256 449.7 256 432L256 208zM416 208C416 190.3 430.3 176 448 176L496 176C513.7 176 528 190.3 528 208L528 432C528 449.7 513.7 464 496 464L448 464C430.3 464 416 449.7 416 432L416 208z"/><path fill="currentColor" d="M336 176C353.7 176 368 190.3 368 208L368 432C368 449.7 353.7 464 336 464L288 464C270.3 464 256 449.7 256 432L256 208C256 190.3 270.3 176 288 176L336 176zM496 176C513.7 176 528 190.3 528 208L528 432C528 449.7 513.7 464 496 464L448 464C430.3 464 416 449.7 416 432L416 208C416 190.3 430.3 176 448 176L496 176zM312 224C298.7 224 288 234.7 288 248C288 261.3 298.7 272 312 272C325.3 272 336 261.3 336 248C336 234.7 325.3 224 312 224zM472 224C458.7 224 448 234.7 448 248C448 261.3 458.7 272 472 272C485.3 272 496 261.3 496 248C496 234.7 485.3 224 472 224z"/></svg>