<svg xmlns="http://www.w3.org/2000/svg" viewBox="0 0 640 640"><!--! Font Awesome Pro 7.2.0 by @fontawesome - https://fontawesome.com License - https://fontawesome.com/license (Commercial License) Copyright 2026 Fonticons, Inc. --><path opacity=".4" fill="currentColor" d="M61.5 441.1C35.6 467 35.6 509.1 61.5 535L105.5 579C131.4 604.9 173.5 604.9 199.4 579L206.8 571.6L68.9 433.7L61.5 441.1zM114.1 388.4C114.1 388.4 114.1 388.4 114.1 388.4C160.1 434.4 206.1 480.4 252 526.3L321.7 456.6C330.4 447.9 336 436.6 337.6 424.4L349.4 336.2L544.4 141.2L499.1 95.9L304 291L215.9 302.8C203.7 304.4 192.4 310 183.7 318.7L114.1 388.4z"/><path fill="currentColor" d="M252.1 526.3L206.9 571.6L69 433.7L114.2 388.5L252.1 526.4zM489.9 41.3C502.4 28.8 522.7 28.8 535.1 41.3L599.1 105.3C611.6 117.8 611.6 138.1 599.1 150.5C586.6 162.9 566.3 163 553.9 150.5L489.9 86.5C477.4 74 477.4 53.7 489.9 41.3z"/></svg>