<svg xmlns="http://www.w3.org/2000/svg" viewBox="0 0 640 640"><!--! Font Awesome Pro 7.2.0 by @fontawesome - https://fontawesome.com License - https://fontawesome.com/license (Commercial License) Copyright 2026 Fonticons, Inc. --><path opacity=".4" fill="currentColor" d="M41.9 105.4C29.4 117.9 29.4 138.1 41.9 150.6C54.4 163.1 74.7 163.1 87.2 150.6L96.6 141.2L210.5 255.1L281.8 245.6L286.6 240.8L141.8 96L151.2 86.6C163.7 74.1 163.7 53.8 151.2 41.3C138.7 28.8 118.4 28.8 105.9 41.3L41.9 105.3zM354.4 491.9L441.5 579C467.4 604.9 509.5 604.9 535.4 579L579.4 535C605.3 509.1 605.3 467 579.4 441.1L457.1 318.7C453.3 314.9 449 311.7 444.3 309.2L394.9 358.7L385.3 430.9L385.3 430.9C382.3 453.5 371.9 474.5 355.8 490.6L354.5 491.9z"/><path fill="currentColor" d="M489.9 41.4C502.4 28.9 522.7 28.9 535.2 41.4L599.2 105.4C611.7 117.9 611.7 138.2 599.2 150.6C586.7 163 566.4 163.1 553.9 150.6L544.5 141.2L349.5 336.2L337.7 424.4C336.1 436.6 330.5 447.9 321.8 456.6L199.4 579C173.5 604.9 131.4 604.9 105.5 579L61.5 535C35.6 509 35.6 467 61.5 441L183.9 318.7C192.6 310 203.9 304.4 216.1 302.8L304.1 291L499.2 96L489.9 86.6C477.4 74.1 477.4 53.8 489.9 41.4z"/></svg>