<svg xmlns="http://www.w3.org/2000/svg" viewBox="0 0 640 640"><!--! Font Awesome Pro 7.2.0 by @fontawesome - https://fontawesome.com License - https://fontawesome.com/license (Commercial License) Copyright 2026 Fonticons, Inc. --><path opacity=".4" fill="currentColor" d="M128.5 263.4C128.5 263.3 128.5 263.2 128.5 263.2C128.5 263.2 128.5 263.1 128.5 263.1C128.5 263 128.5 263 128.5 262.9C128.5 262.9 128.5 262.8 128.5 262.8C128.5 262.7 128.5 262.7 128.5 262.6C128.5 262.5 128.5 262.5 128.5 262.4C128.5 262.3 128.5 262.3 128.5 262.3C128.5 262.2 128.5 262.2 128.5 262.1C128.5 262.1 128.5 262.1 128.5 262.1C129.5 249.8 139.8 240.1 152.4 240.1C229.2 240.1 292.7 297.1 302.9 371.1C335.7 379.8 361.1 406.9 367 440.7L367 440.7C367.1 441.2 367.1 441.5 367.2 441.7C367.3 442.2 367.3 442.5 367.4 442.7C367.5 443.4 367.6 443.8 367.6 444.1C367.6 444.3 367.6 444.4 367.7 444.6C367.7 444.7 367.7 444.8 367.7 444.9C367.7 445.1 367.7 445.3 367.8 445.5C367.8 445.6 367.8 445.8 367.8 445.9C367.8 446.1 367.8 446.3 367.9 446.5C368.1 448.4 368.3 450.4 368.3 452.4C368.3 452.8 368.3 453 368.3 453.2C368.3 453.2 368.3 453.3 368.3 453.3C368.3 453.5 368.3 453.7 368.3 453.8C368.3 453.9 368.3 454 368.3 454.2C368.3 454.2 368.3 454.2 368.3 454.3C368.3 454.4 368.3 454.6 368.3 454.7C368.3 454.7 368.3 454.8 368.3 454.8C368.3 454.9 368.3 455.1 368.3 455.2C368.3 455.2 368.3 455.2 368.3 455.2C368.3 455.3 368.3 455.5 368.3 455.6C368.3 455.6 368.3 455.6 368.3 455.6C368.3 455.8 368.3 455.9 368.3 456.1L368.3 480.1C352.3 480.1 336.3 480.1 320.3 480.1L320.3 456.1C320.3 455.9 320.3 455.8 320.3 455.6C320.3 455.6 320.3 455.6 320.3 455.6C320.3 455.4 320.3 455.3 320.3 455.1C320.3 455.1 320.3 455.1 320.3 455.1C320.3 454.9 320.3 454.8 320.3 454.6C320.3 454.6 320.3 454.5 320.3 454.5C320.3 454.4 320.3 454.2 320.3 454.1C320.3 454.1 320.3 454 320.3 454C320.3 453.9 320.3 453.7 320.3 453.6C320.3 453.5 320.3 453.5 320.3 453.4C320.3 453.3 320.3 453.2 320.3 453C320.3 452.9 320.3 452.9 320.3 452.9C320.3 452.8 320.3 452.7 320.3 452.6C320.3 452.5 320.3 452.4 320.3 452.4C320.3 452.3 320.3 452.2 320.3 452.1C320.3 452 320.3 451.9 320.3 451.9C320.3 451.8 320.3 451.6 320.2 451.3C320.2 451.3 320.2 451.2 320.2 451.2C317.8 431.4 300.9 416.1 280.5 416.1C272.2 416.1 264.9 411.9 260.6 405.5C260.4 405.2 260.2 404.9 260 404.5L260 404.5C259.9 404.3 259.8 404.2 259.7 404C259.6 403.8 259.5 403.7 259.4 403.5C259.2 403.2 259 402.8 258.9 402.5L258.9 402.5C258.8 402.3 258.7 402.2 258.7 402C258.6 401.8 258.5 401.6 258.5 401.5C257.9 400.1 257.4 398.6 257.1 397C256.9 396.2 256.8 395.4 256.7 394.6C256.7 394.2 256.6 393.8 256.6 393.4C256.6 393.2 256.6 393 256.6 392.8C256.6 392.6 256.6 392.4 256.6 392.2C256.6 392 256.6 391.8 256.6 391.5C256.6 391.5 256.6 391.5 256.6 391.5C256.6 391.3 256.6 391.1 256.6 390.9C256.6 390.9 256.6 390.9 256.6 390.9C256.6 390.7 256.6 390.5 256.6 390.3C256.6 390.3 256.6 390.2 256.6 390.2C256.6 390 256.6 389.8 256.6 389.6C256.6 389.6 256.6 389.6 256.6 389.5C256.6 389.3 256.6 389.1 256.6 388.9C256.6 388.9 256.6 388.7 256.6 388.2C256.6 388.2 256.6 388.1 256.6 388.1C256.6 387.7 256.6 387.5 256.6 387.4C256.6 387.2 256.6 387.1 256.6 386.9C256.6 386.8 256.6 386.6 256.6 386.3C256.6 386.1 256.6 385.9 256.6 385.6C256.6 385.5 256.6 385.3 256.6 385C256.6 384.9 256.6 384.8 256.6 384.7C256.6 384.5 256.6 384.2 256.6 384.1C256.6 384 256.6 383.9 256.6 383.8C256.6 383.6 256.6 383.5 256.6 383.4C256.6 383.3 256.6 383.2 256.6 383.2C256.6 383.1 256.6 382.9 256.6 382.8C256.6 382.7 256.6 382.7 256.6 382.6C256.6 382.4 256.6 382.2 256.5 382C256.5 382 256.5 381.9 256.5 381.9C251.3 329.3 206.9 288.3 153 288.3C145.1 288.3 138.1 284.5 133.7 278.6C133.6 278.5 133.5 278.3 133.4 278.2C133.3 278 133.2 277.9 133.1 277.7C132.2 276.4 131.5 275.1 130.9 273.6C130.6 272.9 130.3 272.1 130.1 271.4C130 271 129.9 270.6 129.8 270.3C129.8 270.1 129.7 269.9 129.7 269.7C129.7 269.5 129.6 269.3 129.6 269.1L129.6 269.1C129.4 268.3 129.3 267.5 129.2 266.7C129.2 266.3 129.1 265.9 129.1 265.5C129.1 265.3 129.1 265.1 129.1 264.9C129.1 264.7 129.1 264.5 129.1 264.3C129.1 264.2 129.1 264.1 129.1 264C129.1 264 129.1 264 129.1 264C129.1 263.9 129.1 263.8 129.1 263.7C129.1 263.7 129.1 263.7 129.1 263.7zM352.5 206.9C352.5 206.7 352.5 206.6 352.5 206.4C352.5 206.4 352.5 206.3 352.5 206.3C352.5 206.1 352.5 206 352.5 205.8C352.5 205.8 352.5 205.7 352.5 205.7C352.5 205.6 352.5 205.4 352.5 205.3C352.5 205.2 352.5 205.2 352.5 205.1C352.5 205 352.5 204.8 352.5 204.7C352.5 204.6 352.5 204.6 352.5 204.5C352.5 204.2 352.5 204 352.5 203.9C352.5 203.7 352.5 203.5 352.6 203.3C352.6 203.1 352.6 202.9 352.7 202.7C352.7 202.6 352.7 202.4 352.8 202.1C352.8 202 352.8 202 352.8 201.9C352.8 201.7 352.8 201.6 352.9 201.4C352.9 201.4 352.9 201.3 352.9 201.3C354.3 191.3 358.8 181.7 366.5 174C385.2 155.3 415.6 155.3 434.4 174C440.2 179.8 446 185.6 451.8 191.4C420.4 202.7 394.8 226.1 380.6 256C375.9 251.3 371.2 246.6 366.5 241.9C359.3 234.7 354.8 225.7 353.2 216.3C353.2 216.3 353.2 216.2 353.2 216.2C353.2 216 353.1 215.9 353.1 215.7C353.1 215.6 353.1 215.4 353 215.2C353 215.1 353 214.9 352.9 214.6C352.9 214.4 352.9 214.2 352.8 214.1C352.8 213.9 352.7 213.7 352.7 213.5C352.7 213.2 352.7 213.1 352.6 213C352.6 212.7 352.6 212.5 352.5 212.4C352.5 212.3 352.5 212.1 352.5 212C352.5 212 352.5 211.9 352.5 211.9C352.5 211.8 352.5 211.6 352.5 211.5C352.5 211.5 352.5 211.4 352.5 211.4C352.5 211.2 352.5 211.1 352.5 210.9C352.5 210.9 352.5 210.8 352.5 210.8C352.5 210.6 352.5 210.5 352.5 210.3C352.5 210.3 352.5 210.2 352.5 210.2C352.5 210 352.5 209.9 352.5 209.7C352.5 209.7 352.5 209.7 352.5 209.7C352.5 209.5 352.5 209.4 352.5 209.2C352.5 209.2 352.5 209.2 352.5 209.2C352.5 209 352.5 208.8 352.5 208.7L352.5 208.7C352.5 208.3 352.5 207.9 352.5 207.6L352.5 207.6C352.5 207.4 352.5 207.2 352.5 207.1C352.5 207.1 352.5 207.1 352.5 207.1zM541.2 191.5L558.6 174.1C577.3 155.4 607.7 155.4 626.5 174.1C645.3 192.8 645.2 223.2 626.5 242L612.4 256C598.2 226.1 572.6 202.7 541.2 191.4z"/><path fill="currentColor" d="M288.5 64C380 64 460.2 112 505.4 184.2C571.8 187.8 624.5 242.8 624.5 310C624.5 337.3 615.7 363.8 599.3 385.6L528.5 480C520.9 490.1 509.1 496 496.5 496C483.9 496 472.1 490.1 464.5 480L368.5 480L368.5 456C368.5 415.2 340.7 381 303 371C292.8 297 229.3 240 152.5 240C139.2 240 128.5 250.7 128.5 264C128.5 277.3 139.2 288 152.5 288C209.9 288 256.5 334.6 256.5 392C256.5 405.3 267.2 416 280.5 416C302.6 416 320.5 433.9 320.5 456L320.5 480L288.5 480C254.9 480 223.8 469.7 198.1 452.1C187.2 444.6 172.3 447.4 164.8 458.3C157.3 469.2 160.1 484.1 171 491.6C204.4 514.5 245 528 288.5 528L488.1 528C501.4 528 512.1 538.7 512.1 552C512.1 565.3 501.4 576 488.1 576L288.5 576C147.1 576 32.5 461.4 32.5 320C32.5 178.6 147.1 64 288.5 64zM510.2 258.3C506.6 261.9 501.7 264 496.5 264C491.3 264 486.5 262 482.8 258.3L463.1 238.5C435.7 250.6 416.5 278 416.5 309.9C416.5 326.8 422 343.2 432.1 356.7L476.5 415.9L516.4 415.9L560.8 356.7C570.9 343.2 576.4 326.8 576.4 309.9C576.4 278 557.2 250.6 529.8 238.5L510.1 258.3zM464.5 324C453.5 324 444.5 315 444.5 304C444.5 293 453.5 284 464.5 284C475.5 284 484.5 293 484.5 304C484.5 315 475.5 324 464.5 324zM528.5 324C517.5 324 508.5 315 508.5 304C508.5 293 517.5 284 528.5 284C539.5 284 548.5 293 548.5 304C548.5 315 539.5 324 528.5 324zM434.4 174.1C415.7 155.4 385.3 155.4 366.5 174.1C347.7 192.8 347.8 223.2 366.5 242L380.6 256C394.8 226.1 420.4 202.7 451.8 191.4L434.4 174z"/></svg>