<svg xmlns="http://www.w3.org/2000/svg" viewBox="0 0 640 640"><!--! Font Awesome Pro 7.2.0 by @fontawesome - https://fontawesome.com License - https://fontawesome.com/license (Commercial License) Copyright 2026 Fonticons, Inc. --><path opacity=".4" fill="currentColor" d="M64 320C64 354.7 71 387.8 83.5 418L187 375.2C180 358.2 176.1 339.6 176.1 320.1C176.1 300.6 180 281.9 187 264.9L83.5 222C70.9 252.2 64 285.3 64 320zM222.1 83.4L264.9 186.9C281.9 179.9 300.5 176 320 176C339.5 176 358.1 179.9 375.1 186.9L418 83.5C387.8 70.9 354.7 64 320 64C285.3 64 252.2 70.9 222.1 83.4zM222.1 556.5C252.3 569 285.3 576 320 576C354.7 576 387.8 569 418 556.5L375.1 453C358.1 460 339.5 464 320 464C300.5 464 281.9 460.1 264.9 453.1L222.1 556.5zM453 264.9C460 281.9 464 300.5 464 320C464 339.5 460.1 358.1 453 375.1L556.5 417.9C569 387.7 576 354.7 576 320C576 285.3 569 252.2 556.5 222L453 264.9z"/><path fill="currentColor" d="M186.9 375.1C201.5 410.3 229.7 438.4 264.9 453L222.1 556.5C159.5 530.6 109.4 480.6 83.5 418L187 375.2zM556.5 417.9C530.6 480.5 480.5 530.5 418 556.5L375.1 453C410.3 438.4 438.4 410.3 453 375.1L556.5 417.9zM320 416C267 416 224 373 224 320C224 267 267 224 320 224C373 224 416 267 416 320C416 373 373 416 320 416zM418 83.5C480.6 109.5 530.6 159.5 556.5 222.1L453 264.9C438.4 229.7 410.3 201.6 375.1 187L418 83.5zM264.9 186.9C229.7 201.5 201.5 229.6 186.9 264.8L83.5 222C109.5 159.4 159.5 109.4 222.1 83.4L264.9 186.9z"/></svg>