<svg xmlns="http://www.w3.org/2000/svg" viewBox="0 0 640 640"><!--! Font Awesome Pro 7.2.0 by @fontawesome - https://fontawesome.com License - https://fontawesome.com/license (Commercial License) Copyright 2026 Fonticons, Inc. --><path opacity=".4" fill="currentColor" d="M0 192L0 448C0 483.3 28.7 512 64 512L576 512C611.3 512 640 483.3 640 448L640 192C640 156.7 611.3 128 576 128L64 128C28.7 128 0 156.7 0 192zM64 244C64 235 70.1 227 78.8 224.7C87.5 222.4 96.8 226.2 101.3 234L152 321.5L152 244C152 233 161 224 172 224C183 224 192 233 192 244L192 396C192 405 185.9 413 177.2 415.3C168.5 417.6 159.2 413.8 154.7 406L104 318.5L104 396C104 407 95 416 84 416C73 416 64 407 64 396L64 244zM240 244C240 233 249 224 260 224L348 224C359 224 368 233 368 244C368 255 359 264 348 264L280 264L280 300L336 300C347 300 356 309 356 320C356 331 347 340 336 340L280 340L280 376L348 376C359 376 368 385 368 396C368 407 359 416 348 416L260 416C249 416 240 407 240 396L240 244zM416 244C416 233 425 224 436 224C447 224 456 233 456 244L456 323.9C456 331.2 457.8 338.3 461.2 344.7L466 353.6L478.4 330.5L479.8 328.2C483.5 323.1 489.5 320 496 320C503.4 320 510.1 324.1 513.6 330.6L525.9 353.7L530.7 344.8C534.1 338.4 535.9 331.3 535.9 324L535.9 244.1C535.9 233.1 544.9 224.1 555.9 224.1C566.9 224.1 575.9 233.1 575.9 244.1L575.9 324C575.9 337.8 572.5 351.5 565.9 363.7L543.5 405.5C540 412 533.2 416.1 525.9 416.1C518.6 416.1 511.8 412 508.3 405.5L495.9 382.4L483.5 405.5C480 412 473.2 416.1 465.9 416.1C458.6 416.1 451.8 412 448.3 405.5L426 363.6C419.5 351.4 416 337.8 416 323.9L416 244z"/><path fill="currentColor" d="M172 224C183 224 192 233 192 244L192 396C192 405 185.9 413 177.2 415.3C168.5 417.6 159.2 413.8 154.7 406L104 318.5L104 396C104 407 95 416 84 416C73 416 64 407 64 396L64 244C64 235 70.1 227 78.8 224.7C87.5 222.4 96.8 226.2 101.3 234L152 321.5L152 244C152 233 161 224 172 224zM348 224C359 224 368 233 368 244C368 255 359 264 348 264L280 264L280 300L336 300C347 300 356 309 356 320C356 331 347 340 336 340L280 340L280 376L348 376C359 376 368 385 368 396C368 407 359 416 348 416L260 416C249 416 240 407 240 396L240 244C240 233 249 224 260 224L348 224zM556 224C567 224 576 233 576 244L576 323.9C576 337.7 572.6 351.4 566 363.6L543.6 405.4C540.1 411.9 533.3 416 526 416C518.7 416 511.9 411.9 508.4 405.4L496 382.3L483.6 405.4C480.1 411.9 473.3 416 466 416C458.7 416 451.9 411.9 448.4 405.4L426 363.6C419.5 351.4 416 337.8 416 323.9L416 244C416 233 425 224 436 224C447 224 456 233 456 244L456 323.9C456 331.2 457.8 338.3 461.2 344.7L466 353.6L478.4 330.5L479.8 328.2C483.5 323.1 489.5 320 496 320C503.4 320 510.1 324.1 513.6 330.6L525.9 353.7L530.7 344.8C534.1 338.4 535.9 331.3 535.9 324L535.9 244.1C535.9 233.1 544.9 224.1 555.9 224.1z"/></svg>