<svg xmlns="http://www.w3.org/2000/svg" viewBox="0 0 640 640"><!--! Font Awesome Pro 7.2.0 by @fontawesome - https://fontawesome.com License - https://fontawesome.com/license (Commercial License) Copyright 2026 Fonticons, Inc. --><path opacity=".4" fill="currentColor" d="M64 192L64 448C64 483.3 92.7 512 128 512L512 512C547.3 512 576 483.3 576 448L576 192C576 156.7 547.3 128 512 128L128 128C92.7 128 64 156.7 64 192zM136 248C136 234.7 146.7 224 160 224C173.3 224 184 234.7 184 248L184 392C184 405.3 173.3 416 160 416C146.7 416 136 405.3 136 392L136 248zM224 248C224 234.7 234.7 224 248 224L284 224C321.6 224 352 254.4 352 292C352 309.4 345.4 325.2 334.7 337.2C345.5 349.8 352 366.1 352 384L352 392C352 405.3 341.3 416 328 416C314.7 416 304 405.3 304 392L304 384C304 370.7 293.3 360 280 360L272 360L272 392C272 405.3 261.3 416 248 416C234.7 416 224 405.3 224 392L224 248zM272 272L272 312L284 312C295 312 304 303 304 292C304 281 295 272 284 272L272 272zM384 280C384 249.1 409.1 224 440 224L456 224C486.9 224 512 249.1 512 280C512 293.3 501.3 304 488 304C474.7 304 464 293.3 464 280C464 275.6 460.4 272 456 272L440 272C435.6 272 432 275.6 432 280L432 360C432 364.4 435.6 368 440 368L456 368C460.4 368 464 364.4 464 360C464 346.7 474.7 336 488 336C501.3 336 512 346.7 512 360C512 390.9 486.9 416 456 416L440 416C409.1 416 384 390.9 384 360L384 280z"/><path fill="currentColor" d="M160 224C173.3 224 184 234.7 184 248L184 392C184 405.3 173.3 416 160 416C146.7 416 136 405.3 136 392L136 248C136 234.7 146.7 224 160 224zM284 224C321.6 224 352 254.4 352 292C352 309.4 345.4 325.2 334.7 337.2C345.5 349.8 352 366.1 352 384L352 392C352 405.3 341.3 416 328 416C314.7 416 304 405.3 304 392L304 384C304 370.7 293.3 360 280 360L272 360L272 392C272 405.3 261.3 416 248 416C234.7 416 224 405.3 224 392L224 248C224 234.7 234.7 224 248 224L284 224zM456 224C486.9 224 512 249.1 512 280C512 293.3 501.3 304 488 304C474.7 304 464 293.3 464 280C464 275.6 460.4 272 456 272L440 272C435.6 272 432 275.6 432 280L432 360C432 364.4 435.6 368 440 368L456 368C460.4 368 464 364.4 464 360C464 346.7 474.7 336 488 336C501.3 336 512 346.7 512 360C512 390.9 486.9 416 456 416L440 416C409.1 416 384 390.9 384 360L384 280C384 249.1 409.1 224 440 224L456 224zM272 312L284 312C295 312 304 303 304 292C304 281 295 272 284 272L272 272L272 312z"/></svg>