<svg xmlns="http://www.w3.org/2000/svg" viewBox="0 0 640 640"><!--! Font Awesome Pro 7.2.0 by @fontawesome - https://fontawesome.com License - https://fontawesome.com/license (Commercial License) Copyright 2026 Fonticons, Inc. --><path opacity=".4" fill="currentColor" d="M64 192C64 156.7 92.7 128 128 128L512 128C547.3 128 576 156.7 576 192L576 448C576 483.3 547.3 512 512 512L128 512C92.7 512 64 483.3 64 448L64 192zM128 248L128 392C128 405.3 138.7 416 152 416C165.3 416 176 405.3 176 392L176 340.6L211 403.7C216.3 413.3 227.4 418 238 415.3C248.6 412.6 256 403 256 392.1L256 248.1C256 234.8 245.3 224.1 232 224.1C218.7 224.1 208 234.8 208 248.1L208 299.5L173 236.5C167.7 226.9 156.6 222.2 146 224.9C136.7 227.3 129.9 234.9 128.4 244.1L128.1 248.1zM280.3 420.3C278.3 433.4 287.3 445.7 300.4 447.7C313.5 449.7 325.8 440.7 327.8 427.6L359.8 219.6C361.8 206.5 352.8 194.2 339.7 192.2C326.6 190.2 314.3 199.2 312.3 212.3L280.3 420.3zM384 288L384 392C384 405.3 394.7 416 408 416C421.3 416 432 405.3 432 392L432 368L464 368L464 392C464 405.3 474.7 416 488 416C501.3 416 512 405.3 512 392L512 288C512 252.7 483.3 224 448 224C412.7 224 384 252.7 384 288zM432 288C432 279.2 439.2 272 448 272C456.8 272 464 279.2 464 288L464 320L432 320L432 288z"/><path fill="currentColor" d="M339.7 192.3C352.8 194.3 361.8 206.6 359.8 219.7L327.8 427.7C325.8 440.8 313.5 449.8 300.4 447.8C287.3 445.8 278.3 433.5 280.3 420.4L312.3 212.4C314.3 199.3 326.6 190.3 339.7 192.3zM232 224C245.3 224 256 234.7 256 248L256 392C256 402.9 248.6 412.5 238 415.2C227.4 417.9 216.3 413.2 211 403.6L176 340.5L176 391.9C176 405.2 165.3 415.9 152 415.9C138.7 415.9 128 405.2 128 391.9L128 247.9L128.3 243.9C129.9 234.7 136.7 227.1 145.9 224.7C156.5 222 167.6 226.7 172.9 236.3L207.9 299.3L207.9 247.9C207.9 234.6 218.6 223.9 231.9 223.9zM448 224C483.3 224 512 252.7 512 288L512 392C512 405.3 501.3 416 488 416C474.7 416 464 405.3 464 392L464 368L432 368L432 392C432 405.3 421.3 416 408 416C394.7 416 384 405.3 384 392L384 288C384 252.7 412.7 224 448 224zM448 272C439.2 272 432 279.2 432 288L432 320L464 320L464 288C464 279.2 456.8 272 448 272z"/></svg>