<svg xmlns="http://www.w3.org/2000/svg" viewBox="0 0 640 640"><!--! Font Awesome Pro 7.2.0 by @fontawesome - https://fontawesome.com License - https://fontawesome.com/license (Commercial License) Copyright 2026 Fonticons, Inc. --><path opacity=".4" fill="currentColor" d="M64 192L64 448C64 483.3 92.7 512 128 512L512 512C547.3 512 576 483.3 576 448L576 192C576 156.7 547.3 128 512 128L128 128C92.7 128 64 156.7 64 192zM128 288C128 252.7 156.7 224 192 224C227.3 224 256 252.7 256 288L256 392C256 405.3 245.3 416 232 416C218.7 416 208 405.3 208 392L208 368L176 368L176 392C176 405.3 165.3 416 152 416C138.7 416 128 405.3 128 392L128 288zM176 288L176 320L208 320L208 288C208 279.2 200.8 272 192 272C183.2 272 176 279.2 176 288zM288 248C288 234.7 298.7 224 312 224L352 224C387.3 224 416 252.7 416 288C416 323.3 387.3 352 352 352L336 352L336 392C336 405.3 325.3 416 312 416C298.7 416 288 405.3 288 392L288 248zM336 272L336 304L352 304C360.8 304 368 296.8 368 288C368 279.2 360.8 272 352 272L336 272zM448 248C448 234.7 458.7 224 472 224C485.3 224 496 234.7 496 248L496 392C496 405.3 485.3 416 472 416C458.7 416 448 405.3 448 392L448 248z"/><path fill="currentColor" d="M192 224C227.3 224 256 252.7 256 288L256 392C256 405.3 245.3 416 232 416C218.7 416 208 405.3 208 392L208 368L176 368L176 392C176 405.3 165.3 416 152 416C138.7 416 128 405.3 128 392L128 288C128 252.7 156.7 224 192 224zM352 224C387.3 224 416 252.7 416 288C416 323.3 387.3 352 352 352L336 352L336 392C336 405.3 325.3 416 312 416C298.7 416 288 405.3 288 392L288 248C288 234.7 298.7 224 312 224L352 224zM472 224C485.3 224 496 234.7 496 248L496 392C496 405.3 485.3 416 472 416C458.7 416 448 405.3 448 392L448 248C448 234.7 458.7 224 472 224zM192 272C183.2 272 176 279.2 176 288L176 320L208 320L208 288C208 279.2 200.8 272 192 272zM336 304L352 304C360.8 304 368 296.8 368 288C368 279.2 360.8 272 352 272L336 272L336 304z"/></svg>