<svg xmlns="http://www.w3.org/2000/svg" viewBox="0 0 640 640"><!--! Font Awesome Pro 7.2.0 by @fontawesome - https://fontawesome.com License - https://fontawesome.com/license (Commercial License) Copyright 2026 Fonticons, Inc. --><path opacity=".4" fill="currentColor" d="M160 96L160 448C160 536.4 231.6 608 320 608C408.4 608 480 536.4 480 448L480 96C480 60.7 451.3 32 416 32L224 32C188.7 32 160 60.7 160 96zM216 352C216 343.2 223.2 336 232 336L248 336C256.8 336 264 343.2 264 352L264 368C264 376.8 256.8 384 248 384L232 384C223.2 384 216 376.8 216 368L216 352zM216 432C216 423.2 223.2 416 232 416L248 416C256.8 416 264 423.2 264 432L264 448C264 456.8 256.8 464 248 464L232 464C223.2 464 216 456.8 216 448L216 432zM416 192C416 245 373 288 320 288C267 288 224 245 224 192C224 139 267 96 320 96C373 96 416 139 416 192zM272 192C272 218.5 293.5 240 320 240C346.5 240 368 218.5 368 192C368 165.5 346.5 144 320 144C293.5 144 272 165.5 272 192zM296 352C296 343.2 303.2 336 312 336L328 336C336.8 336 344 343.2 344 352L344 368C344 376.8 336.8 384 328 384L312 384C303.2 384 296 376.8 296 368L296 352zM296 432C296 423.2 303.2 416 312 416L328 416C336.8 416 344 423.2 344 432L344 448C344 456.8 336.8 464 328 464L312 464C303.2 464 296 456.8 296 448L296 432zM296 512C296 503.2 303.2 496 312 496L328 496C336.8 496 344 503.2 344 512L344 528C344 536.8 336.8 544 328 544L312 544C303.2 544 296 536.8 296 528L296 512zM376 352C376 343.2 383.2 336 392 336L408 336C416.8 336 424 343.2 424 352L424 368C424 376.8 416.8 384 408 384L392 384C383.2 384 376 376.8 376 368L376 352zM376 432C376 423.2 383.2 416 392 416L408 416C416.8 416 424 423.2 424 432L424 448C424 456.8 416.8 464 408 464L392 464C383.2 464 376 456.8 376 448L376 432z"/><path fill="currentColor" d="M328 496C336.8 496 344 503.2 344 512L344 528C344 536.8 336.8 544 328 544L312 544C303.2 544 296 536.8 296 528L296 512C296 503.2 303.2 496 312 496L328 496zM248 416C256.8 416 264 423.2 264 432L264 448C264 456.8 256.8 464 248 464L232 464C223.2 464 216 456.8 216 448L216 432C216 423.2 223.2 416 232 416L248 416zM328 416C336.8 416 344 423.2 344 432L344 448C344 456.8 336.8 464 328 464L312 464C303.2 464 296 456.8 296 448L296 432C296 423.2 303.2 416 312 416L328 416zM408 416C416.8 416 424 423.2 424 432L424 448C424 456.8 416.8 464 408 464L392 464C383.2 464 376 456.8 376 448L376 432C376 423.2 383.2 416 392 416L408 416zM248 336C256.8 336 264 343.2 264 352L264 368C264 376.8 256.8 384 248 384L232 384C223.2 384 216 376.8 216 368L216 352C216 343.2 223.2 336 232 336L248 336zM328 336C336.8 336 344 343.2 344 352L344 368C344 376.8 336.8 384 328 384L312 384C303.2 384 296 376.8 296 368L296 352C296 343.2 303.2 336 312 336L328 336zM408 336C416.8 336 424 343.2 424 352L424 368C424 376.8 416.8 384 408 384L392 384C383.2 384 376 376.8 376 368L376 352C376 343.2 383.2 336 392 336L408 336z"/></svg>