<svg xmlns="http://www.w3.org/2000/svg" viewBox="0 0 640 640"><!--! Font Awesome Pro 7.2.0 by @fontawesome - https://fontawesome.com License - https://fontawesome.com/license (Commercial License) Copyright 2026 Fonticons, Inc. --><path opacity=".4" fill="currentColor" d="M160.1 509.1C158.5 526.7 171.5 542.3 189.1 543.9C206.7 545.5 222.3 532.5 223.9 514.9L235.8 384L404.2 384L416.1 514.9C417.7 532.5 433.3 545.5 450.9 543.9C468.5 542.3 481.5 526.7 479.9 509.1L451.1 192L386.8 192L398.4 320L241.6 320L253.2 192L188.9 192L160.1 509.1z"/><path fill="currentColor" d="M128 160L128 128C128 110.3 142.3 96 160 96L480 96C497.7 96 512 110.3 512 128L512 160C512 177.7 497.7 192 480 192L160 192C142.3 192 128 177.7 128 160z"/></svg>