<svg xmlns="http://www.w3.org/2000/svg" viewBox="0 0 640 640"><!--! Font Awesome Pro 7.2.0 by @fontawesome - https://fontawesome.com License - https://fontawesome.com/license (Commercial License) Copyright 2026 Fonticons, Inc. --><path opacity=".4" fill="currentColor" d="M32 320C32 306.7 42.7 296 56 296L120 296C133.3 296 144 306.7 144 320C144 333.3 133.3 344 120 344L56 344C42.7 344 32 333.3 32 320zM116.3 116.3C125.7 106.9 140.9 106.9 150.2 116.3L195.5 161.5C204.9 170.9 204.9 186.1 195.5 195.5C186.1 204.9 170.9 204.9 161.5 195.5L116.3 150.3C106.9 140.9 106.9 125.7 116.3 116.4zM116.3 489.7L161.5 444.4C170.9 435 186.1 435 195.5 444.4C204.9 453.8 204.9 469 195.5 478.4L150.2 523.7C140.8 533.1 125.6 533.1 116.3 523.7C107 514.3 106.9 499.1 116.3 489.8zM296 56C296 42.7 306.7 32 320 32C333.3 32 344 42.7 344 56L344 120C344 133.3 333.3 144 320 144C306.7 144 296 133.3 296 120L296 56zM296 520C296 506.7 306.7 496 320 496C333.3 496 344 506.7 344 520L344 584C344 597.3 333.3 608 320 608C306.7 608 296 597.3 296 584L296 520zM444.4 161.6L489.7 116.4C499.1 107 514.3 107 523.6 116.4C532.9 125.8 533 141 523.6 150.3L478.3 195.6C468.9 205 453.7 205 444.3 195.6C434.9 186.2 434.9 171 444.3 161.6zM444.4 444.4C453.8 435 469 435 478.4 444.4L523.7 489.7C533.1 499.1 533.1 514.3 523.7 523.6C514.3 532.9 499.1 533 489.8 523.6L444.5 478.3C435.1 468.9 435.1 453.7 444.5 444.3zM496 320C496 306.7 506.7 296 520 296L584 296C597.3 296 608 306.7 608 320C608 333.3 597.3 344 584 344L520 344C506.7 344 496 333.3 496 320z"/><path fill="currentColor" d="M192 320C192 249.3 249.3 192 320 192C390.7 192 448 249.3 448 320C448 390.7 390.7 448 320 448C249.3 448 192 390.7 192 320z"/></svg>