<svg xmlns="http://www.w3.org/2000/svg" viewBox="0 0 640 640"><!--! Font Awesome Pro 7.2.0 by @fontawesome - https://fontawesome.com License - https://fontawesome.com/license (Commercial License) Copyright 2026 Fonticons, Inc. --><path opacity=".4" fill="currentColor" d="M32.5 320C32.5 328.4 36.9 336.3 44.2 340.6L136.8 396.1L110.6 500.8C108.6 509 110.9 517.7 116.9 523.6L218.7 421.8C192.6 395.7 176.5 359.7 176.5 320C176.5 240.5 241 176 320.5 176C360.3 176 396.3 192.1 422.3 218.2L524.2 116.3C518.2 110.3 509.6 107.9 501.4 110L396.6 136.3L341.1 43.6C336.8 36.4 328.9 31.9 320.5 31.9C313.1 31.9 306.2 35.3 301.7 41L299.9 43.6L244.4 136.2L139.7 110C131.5 108 122.9 110.4 116.9 116.3C110.9 122.2 108.5 131 110.5 139.1L136.7 243.8L44.1 299.3C36.9 303.7 32.5 311.6 32.5 320zM224.5 320C224.5 346.5 235.3 370.5 252.6 387.9L388.4 252.1C371 234.7 347 224 320.5 224C267.5 224 224.5 267 224.5 320z"/><path fill="currentColor" d="M544.5 256C562.2 256 576.5 241.7 576.5 224C576.5 206.3 562.2 192 544.5 192C526.8 192 512.5 206.3 512.5 224C512.5 241.7 526.8 256 544.5 256zM464.5 336C482.2 336 496.5 321.7 496.5 304C496.5 286.3 482.2 272 464.5 272C446.8 272 432.5 286.3 432.5 304C432.5 321.7 446.8 336 464.5 336zM576.5 384C576.5 366.3 562.2 352 544.5 352C526.8 352 512.5 366.3 512.5 384C512.5 401.7 526.8 416 544.5 416C562.2 416 576.5 401.7 576.5 384zM336.5 464C336.5 446.3 322.2 432 304.5 432C286.8 432 272.5 446.3 272.5 464C272.5 481.7 286.8 496 304.5 496C322.2 496 336.5 481.7 336.5 464zM256.5 544C256.5 526.3 242.2 512 224.5 512C206.8 512 192.5 526.3 192.5 544C192.5 561.7 206.8 576 224.5 576C242.2 576 256.5 561.7 256.5 544zM384.5 576C402.2 576 416.5 561.7 416.5 544C416.5 526.3 402.2 512 384.5 512C366.8 512 352.5 526.3 352.5 544C352.5 561.7 366.8 576 384.5 576zM576.5 544C576.5 526.3 562.2 512 544.5 512C526.8 512 512.5 526.3 512.5 544C512.5 561.7 526.8 576 544.5 576C562.2 576 576.5 561.7 576.5 544zM464.5 496C482.2 496 496.5 481.7 496.5 464C496.5 446.3 482.2 432 464.5 432C446.8 432 432.5 446.3 432.5 464C432.5 481.7 446.8 496 464.5 496zM416.5 384C416.5 366.3 402.2 352 384.5 352C366.8 352 352.5 366.3 352.5 384C352.5 401.7 366.8 416 384.5 416C402.2 416 416.5 401.7 416.5 384z"/></svg>