<svg xmlns="http://www.w3.org/2000/svg" viewBox="0 0 640 640"><!--! Font Awesome Pro 7.2.0 by @fontawesome - https://fontawesome.com License - https://fontawesome.com/license (Commercial License) Copyright 2026 Fonticons, Inc. --><path opacity=".4" fill="currentColor" d="M32 320C32 328.4 36.4 336.3 43.7 340.6L136.3 396.1L110 500.8C108 509 110.3 517.7 116.3 523.6C122.3 529.5 131 532 139.2 530L240 504.6C240 504.4 240 504.2 240 504C240 483.7 245 464.6 253.9 447.9C207.7 423.9 176 375.7 176 320C176 240.5 240.5 176 320 176C399.5 176 464 240.5 464 320C464 325.4 463.6 330.7 463.1 336C463.4 336 463.7 336 464 336C496.8 336 526.7 348.4 549.3 368.7L596.3 340.5C603.5 336.2 608 328.3 608 319.9C608 311.5 603.6 303.6 596.3 299.3L503.7 243.9L530 139.1C532 130.9 529.6 122.3 523.7 116.3C517.8 110.3 509 108 500.9 110L396.1 136.3L340.6 43.6C336.3 36.4 328.4 31.9 320 31.9C312.6 31.9 305.7 35.3 301.2 41L299.4 43.6L243.9 136.2L139.2 110C131 108 122.4 110.4 116.4 116.3C110.4 122.2 108 131 110 139.1L136.2 243.8L43.6 299.3C36.4 303.7 32 311.6 32 320zM224 320C224 361 249.7 395.9 285.9 409.6C306.3 393.6 332.1 384 360 384C361.4 384 362.8 384 364.1 384.1C376.8 368.2 393.2 355.5 412 347.1C414.5 338.5 415.9 329.4 415.9 320C415.9 267 372.9 224 319.9 224C266.9 224 223.9 267 223.9 320z"/><path fill="currentColor" d="M608 512C608 547.3 579.3 576 544 576L360 576C320.2 576 288 543.8 288 504C288 464.2 320.2 432 360 432C370.1 432 379.7 434.1 388.4 437.8C399.2 406.5 429 384 464 384C502.7 384 535 411.5 542.4 448C542.9 448 543.5 448 544 448C579.3 448 608 476.7 608 512z"/></svg>