<svg xmlns="http://www.w3.org/2000/svg" viewBox="0 0 640 640"><!--! Font Awesome Pro 7.2.0 by @fontawesome - https://fontawesome.com License - https://fontawesome.com/license (Commercial License) Copyright 2026 Fonticons, Inc. --><path opacity=".4" fill="currentColor" d="M32 320C32 328.4 36.4 336.3 43.7 340.6L116.1 384L191 384C181.4 364.7 176 343 176 320C176 240.5 240.5 176 320 176C399.5 176 464 240.5 464 320C464 343 458.6 364.7 449 384L523.9 384L596.4 340.6C603.6 336.3 608.1 328.4 608.1 320C608.1 311.6 603.7 303.7 596.4 299.4L503.7 243.9L530 139.1C532 130.9 529.6 122.3 523.7 116.3C517.8 110.3 509 108 500.9 110L396.1 136.3L340.6 43.6C336.3 36.4 328.4 31.9 320 31.9C312.6 31.9 305.7 35.3 301.2 41L299.4 43.6L243.9 136.2L139.2 110C131 108 122.4 110.4 116.4 116.3C110.4 122.2 108 131 110 139.1L136.2 243.8L43.6 299.3C36.4 303.7 32 311.6 32 320zM224 320C224 344.6 233.4 367 248.6 384L391.4 384C406.6 367 416 344.6 416 320C416 267 373 224 320 224C267 224 224 267 224 320z"/><path fill="currentColor" d="M520 432C533.3 432 544 442.7 544 456C544 469.3 533.3 480 520 480L56 480C42.7 480 32 469.3 32 456C32 442.7 42.7 432 56 432L520 432zM120 528L200 528C213.3 528 224 538.7 224 552C224 565.3 213.3 576 200 576L120 576C106.7 576 96 565.3 96 552C96 538.7 106.7 528 120 528zM296 528L584 528C597.3 528 608 538.7 608 552C608 565.3 597.3 576 584 576L296 576C282.7 576 272 565.3 272 552C272 538.7 282.7 528 296 528z"/></svg>