<svg xmlns="http://www.w3.org/2000/svg" viewBox="0 0 640 640"><!--! Font Awesome Pro 7.2.0 by @fontawesome - https://fontawesome.com License - https://fontawesome.com/license (Commercial License) Copyright 2026 Fonticons, Inc. --><path opacity=".4" fill="currentColor" d="M32 320C32 328.4 36.4 336.3 43.7 340.6L136.3 396.1L110 500.8C108 509 110.3 517.7 116.3 523.6C122.3 529.5 131 532 139.2 530L243.9 503.7L299.4 596.4C303.7 603.6 311.6 608.1 320 608.1C328.4 608.1 336.3 603.7 340.6 596.4L396.1 503.7L500.8 530C509 532 517.7 529.6 523.6 523.7C529.5 517.8 532 509 530 500.8L503.7 396.1L596.4 340.6C603.6 336.3 608.1 328.4 608.1 320C608.1 311.6 603.7 303.7 596.4 299.4L503.7 243.9L530 139.1C532 130.9 529.6 122.3 523.7 116.3C517.8 110.3 509 108 500.9 110L396.1 136.3L340.6 43.6C336.3 36.4 328.4 31.9 320 31.9C312.6 31.9 305.7 35.3 301.2 41L299.4 43.6L243.9 136.2L139.2 110C131 108 122.4 110.4 116.4 116.3C110.4 122.2 108 131 110 139.1L136.2 243.8L43.6 299.3C36.4 303.7 32 311.6 32 320zM432 320C432 381.9 381.9 432 320 432C258.1 432 208 381.9 208 320C208 258.1 258.1 208 320 208C381.9 208 432 258.1 432 320z"/><path fill="currentColor" d="M208 320C208 258.1 258.1 208 320 208C381.9 208 432 258.1 432 320C432 381.9 381.9 432 320 432C258.1 432 208 381.9 208 320z"/></svg>