<svg xmlns="http://www.w3.org/2000/svg" viewBox="0 0 640 640"><!--! Font Awesome Pro 7.2.0 by @fontawesome - https://fontawesome.com License - https://fontawesome.com/license (Commercial License) Copyright 2026 Fonticons, Inc. --><path opacity=".4" fill="currentColor" d="M54.3 417.8C51.1 425.6 52.2 434.5 57.2 441.3L86 480L184.7 480C197.8 442.9 226.1 411.2 265.3 394.9C338.8 364.5 423 399.4 453.5 472.8C454.5 475.2 455.4 477.5 456.2 479.9L554.9 479.9L583.7 441.2C588.7 434.4 589.8 425.5 586.6 417.7C583.4 409.9 576.3 404.4 567.9 403.1L461 387.4L445.2 280.6C444 272.3 438.4 265.2 430.6 261.9C422.8 258.6 413.9 259.8 407.1 264.8L320.3 329.1L233.6 264.8C226.8 259.8 217.9 258.7 210.1 261.9C203.3 264.7 198.2 270.5 196.2 277.5L195.5 280.6L179.6 387.4L72.8 403.2C64.5 404.4 57.4 410 54.1 417.8zM237.3 480L403.5 480C379.8 438.8 328.7 420.6 283.6 439.3C263.3 447.7 247.5 462.3 237.3 480z"/><path fill="currentColor" d="M337.4 55C328 45.6 312.8 45.6 303.5 55L239.5 119C230.1 128.4 230.1 143.6 239.5 152.9C248.9 162.2 264.1 162.3 273.4 152.9L296.4 129.9L296.4 232C296.4 245.3 307.1 256 320.4 256C333.7 256 344.4 245.3 344.4 232L344.4 129.9L367.4 152.9C376.8 162.3 392 162.3 401.3 152.9C410.6 143.5 410.7 128.3 401.3 119L337.3 55zM88.4 528C75.1 528 64.4 538.7 64.4 552C64.4 565.3 75.1 576 88.4 576L552.4 576C565.7 576 576.4 565.3 576.4 552C576.4 538.7 565.7 528 552.4 528L88.4 528z"/></svg>