<svg xmlns="http://www.w3.org/2000/svg" viewBox="0 0 640 640"><!--! Font Awesome Pro 7.2.0 by @fontawesome - https://fontawesome.com License - https://fontawesome.com/license (Commercial License) Copyright 2026 Fonticons, Inc. --><path opacity=".4" fill="currentColor" d="M54.3 417.8C51.1 425.6 52.2 434.5 57.2 441.3L86 480L184.7 480C197.8 442.9 226.1 411.2 265.3 394.9C338.8 364.5 423 399.4 453.5 472.8C454.5 475.2 455.4 477.5 456.2 479.9L554.9 479.9L583.7 441.2C588.7 434.4 589.8 425.5 586.6 417.7C583.4 409.9 576.3 404.4 567.9 403.1L461 387.4L445.2 280.6C444 272.3 438.4 265.2 430.6 261.9C422.8 258.6 413.9 259.8 407.1 264.8L320.4 329.1L233.7 264.8C226.9 259.8 218 258.7 210.2 261.9C203.4 264.7 198.3 270.5 196.3 277.5L195.6 280.6L179.7 387.4L72.9 403.2C64.6 404.4 57.5 410 54.2 417.8zM237.3 480L403.5 480C379.8 438.8 328.7 420.6 283.6 439.3C263.3 447.7 247.5 462.3 237.3 480z"/><path fill="currentColor" d="M401.4 185L337.4 249C328 258.4 312.8 258.4 303.5 249L239.5 185C230.1 175.6 230.1 160.4 239.5 151.1C248.9 141.8 264.1 141.7 273.4 151.1L296.4 174.1L296.4 72C296.4 58.7 307.1 48 320.4 48C333.7 48 344.4 58.7 344.4 72L344.4 174.1L367.4 151.1C376.8 141.7 392 141.7 401.3 151.1C410.6 160.5 410.7 175.7 401.3 185zM88.4 528L552.4 528C565.7 528 576.4 538.7 576.4 552C576.4 565.3 565.7 576 552.4 576L88.4 576C75.1 576 64.4 565.3 64.4 552C64.4 538.7 75.1 528 88.4 528z"/></svg>