<svg xmlns="http://www.w3.org/2000/svg" viewBox="0 0 640 640"><!--! Font Awesome Pro 7.2.0 by @fontawesome - https://fontawesome.com License - https://fontawesome.com/license (Commercial License) Copyright 2026 Fonticons, Inc. --><path opacity=".4" fill="currentColor" d="M96 160C96 124.7 124.7 96 160 96L192 96L192 160L160 160L160 288L480 288L480 160L448 160L448 96L480 96C515.3 96 544 124.7 544 160L544 480C544 515.3 515.3 544 480 544L160 544C124.7 544 96 515.3 96 480L96 160zM160 352L160 480L480 480L480 352L160 352z"/><path fill="currentColor" d="M252.1 94.1C242.7 84.7 242.7 69.5 252.1 60.2C261.5 50.8 276.7 50.8 286 60.2L319.9 94.1L353.9 60.1C363.3 50.7 378.5 50.7 387.8 60.1C397.2 69.5 397.2 84.7 387.8 94.1L353.9 128L387.9 162C397.3 171.4 397.3 186.6 387.9 195.9C378.5 205.3 363.3 205.3 354 195.9L320 162L286.1 195.9C276.7 205.3 261.5 205.3 252.2 195.9C242.9 186.5 242.8 171.3 252.2 162L286 128L252.1 94.1z"/></svg>