<svg xmlns="http://www.w3.org/2000/svg" viewBox="0 0 640 640"><!--! Font Awesome Pro 7.2.0 by @fontawesome - https://fontawesome.com License - https://fontawesome.com/license (Commercial License) Copyright 2026 Fonticons, Inc. --><path opacity=".4" fill="currentColor" d="M64.1 221.5C66.7 222.6 69.5 223.4 72.5 223.7C73.8 223.9 75.2 224 76.5 224L563.7 224C564.9 224 566.1 223.9 567.3 223.8C570.4 223.5 573.4 222.7 576.1 221.5L576.1 479.9C576.1 497.6 561.8 511.9 544.1 511.9C526.4 511.9 512.1 497.6 512.1 479.9L512.1 351.9L128.1 351.9L128.1 479.9C128.1 497.6 113.8 511.9 96.1 511.9C78.4 511.9 64.1 497.6 64.1 479.9L64.1 221.4z"/><path fill="currentColor" d="M46.2 181.9L56.9 149.9C61.2 136.8 73.4 128 87.2 128L553.1 128C566.9 128 579.1 136.8 583.5 149.9L594.2 181.9C601.1 202.6 585.7 224 563.8 224L76.5 224C54.7 224 39.2 202.6 46.1 181.9z"/></svg>