<svg xmlns="http://www.w3.org/2000/svg" viewBox="0 0 640 640"><!--! Font Awesome Pro 7.2.0 by @fontawesome - https://fontawesome.com License - https://fontawesome.com/license (Commercial License) Copyright 2026 Fonticons, Inc. --><path opacity=".4" fill="currentColor" d="M96 160L96 480C96 515.3 124.7 544 160 544L480 544C515.3 544 544 515.3 544 480L352 480L352 160L544 160C544 124.7 515.3 96 480 96L160 96C124.7 96 96 124.7 96 160zM160 160L288 160L288 480L160 480L160 160z"/><path fill="currentColor" d="M512 224C525.3 224 536 234.7 536 248L536 296L584 296C597.3 296 608 306.7 608 320C608 333.3 597.3 344 584 344L536 344L536 392C536 405.3 525.3 416 512 416C498.7 416 488 405.3 488 392L488 344L440 344C426.7 344 416 333.3 416 320C416 306.7 426.7 296 440 296L488 296L488 248C488 234.7 498.7 224 512 224z"/></svg>