<svg xmlns="http://www.w3.org/2000/svg" viewBox="0 0 640 640"><!--! Font Awesome Pro 7.2.0 by @fontawesome - https://fontawesome.com License - https://fontawesome.com/license (Commercial License) Copyright 2026 Fonticons, Inc. --><path opacity=".4" fill="currentColor" d="M96 160C96 124.7 124.7 96 160 96L160 288L480 288L480 96C515.3 96 544 124.7 544 160L544 480C544 515.3 515.3 544 480 544L160 544C124.7 544 96 515.3 96 480L96 160zM160 352L160 480L480 480L480 352L160 352z"/><path fill="currentColor" d="M224 128C224 114.7 234.7 104 248 104L296 104L296 56C296 42.7 306.7 32 320 32C333.3 32 344 42.7 344 56L344 104L392 104C405.3 104 416 114.7 416 128C416 141.3 405.3 152 392 152L344 152L344 200C344 213.3 333.3 224 320 224C306.7 224 296 213.3 296 200L296 152L248 152C234.7 152 224 141.3 224 128z"/></svg>