<svg xmlns="http://www.w3.org/2000/svg" viewBox="0 0 640 640"><!--! Font Awesome Pro 7.2.0 by @fontawesome - https://fontawesome.com License - https://fontawesome.com/license (Commercial License) Copyright 2026 Fonticons, Inc. --><path opacity=".4" fill="currentColor" d="M96 160L96 480C96 513.1 121.2 540.4 153.5 543.7L160 544L480 544L486.5 543.7C516.6 540.6 540.6 516.7 543.6 486.6L543.9 480.1L543.9 160.1C543.9 124.8 515.2 96.1 479.9 96.1L160 96C124.7 96 96 124.7 96 160zM160 160L288 160L288 192L352 192L352 160L480 160L480 480L352 480L352 448L288 448L288 480L160 480L160 160zM224.5 324.9C223.1 318 224.7 310.6 229.4 304.8L231.1 303L295.1 239C304.5 229.6 319.7 229.6 329 239C334.9 244.9 337.1 253.2 335.5 260.8C337.1 253.2 334.9 244.9 329 238.9C319.6 229.5 304.4 229.5 295.1 238.9L231.1 302.9L229.4 304.7C224.7 310.5 223.1 317.9 224.5 324.8zM305.9 296L392 296C405.1 296 415.7 306.5 416 319.5C415.7 306.5 405.1 296 392 296L306 296L306 296zM305.9 344L328.9 367C334.9 373 337.1 381.4 335.4 389.1C337.1 381.4 334.9 373 328.9 367L305.9 344L305.9 344z"/><path fill="currentColor" d="M329 239C319.6 229.6 304.4 229.6 295.1 239L231.1 303L229.4 304.8C221.7 314.2 222.3 328.1 231.1 336.9L295.1 400.9C304.5 410.3 319.7 410.3 329 400.9C338.3 391.5 338.4 376.3 329 367L306 344L392.1 344C405.4 344 416.1 333.2 416.1 320C416.1 306.8 405.4 296 392.1 296L306 296L329 273C338.4 263.6 338.4 248.4 329 239.1z"/></svg>