<svg xmlns="http://www.w3.org/2000/svg" viewBox="0 0 640 640"><!--! Font Awesome Pro 7.2.0 by @fontawesome - https://fontawesome.com License - https://fontawesome.com/license (Commercial License) Copyright 2026 Fonticons, Inc. --><path opacity=".4" fill="currentColor" d="M96 160L96 480C96 515.3 124.7 544 160 544L160 352L480 352L480 544C515.3 544 544 515.3 544 480L544 160C544 124.7 515.3 96 480 96L160 96C124.7 96 96 124.7 96 160zM160 160L480 160L480 288L160 288L160 160z"/><path fill="currentColor" d="M224 512C224 525.3 234.7 536 248 536L296 536L296 584C296 597.3 306.7 608 320 608C333.3 608 344 597.3 344 584L344 536L392 536C405.3 536 416 525.3 416 512C416 498.7 405.3 488 392 488L344 488L344 440C344 426.7 333.3 416 320 416C306.7 416 296 426.7 296 440L296 488L248 488C234.7 488 224 498.7 224 512z"/></svg>