<svg xmlns="http://www.w3.org/2000/svg" viewBox="0 0 640 640"><!--! Font Awesome Pro 7.2.0 by @fontawesome - https://fontawesome.com License - https://fontawesome.com/license (Commercial License) Copyright 2026 Fonticons, Inc. --><path opacity=".4" fill="currentColor" d="M96 160L96 480L96.3 486.5C99.4 516.6 123.3 540.6 153.4 543.6L159.9 543.9L479.9 543.9L486.4 543.6C518.7 540.3 543.9 513.1 543.9 479.9L543.9 159.9C543.9 124.6 515.2 95.9 479.9 95.9L160 96C124.7 96 96 124.7 96 160zM160 160L288 160L288 192L352 192L352 160L480 160L480 480L352 480L352 448L288 448L288 480L160 480L160 160zM224 319.5C224.3 306.5 234.9 296 248 296L334.1 296L334.1 296L248 296C234.9 296 224.3 306.5 224 319.5zM304.4 260.2C303.1 252.8 305.3 244.8 311.1 239.1C320.5 229.7 335.7 229.7 345 239.1L409 303.1L410.7 304.9C415.5 310.8 417.1 318.4 415.5 325.5C417.1 318.4 415.6 310.8 410.7 304.9L409 303.1L345 239.1C335.6 229.7 320.4 229.7 311.1 239.1C305.3 244.9 303.1 252.8 304.4 260.2zM304.5 388.6C303 381 305.2 372.9 311.1 367L334.1 344L334.1 344L311.1 367C305.2 372.9 303 381 304.5 388.6z"/><path fill="currentColor" d="M311 239C320.4 229.6 335.6 229.6 344.9 239L408.9 303L410.6 304.8C418.3 314.2 417.7 328.1 408.9 336.9L344.9 400.9C335.5 410.3 320.3 410.3 311 400.9C301.7 391.5 301.6 376.3 311 367L334 344L247.9 344C234.6 344 223.9 333.2 223.9 320C223.9 306.8 234.6 296 247.9 296L334 296L311 273C301.6 263.6 301.6 248.4 311 239.1z"/></svg>