<svg xmlns="http://www.w3.org/2000/svg" viewBox="0 0 640 640"><!--! Font Awesome Pro 7.2.0 by @fontawesome - https://fontawesome.com License - https://fontawesome.com/license (Commercial License) Copyright 2026 Fonticons, Inc. --><path opacity=".4" fill="currentColor" d="M96.5 197.8L96.5 480L96.8 486.5C99.9 516.6 123.8 540.6 153.9 543.6L160.4 543.9L442.6 543.9L378.6 479.9L160.4 479.9L160.4 383.9L282.6 383.9L218.6 319.9L160.4 319.9L160.4 261.7L96.4 197.7z"/><path fill="currentColor" d="M39.5 39.1C48.9 29.7 64.1 29.7 73.4 39.1L135.4 101.1C143.1 97.8 151.6 96 160.5 96L480.5 96C515.8 96 544.5 124.7 544.5 160L544.5 480C544.5 488.9 542.6 497.3 539.3 505L601.4 567.1C610.8 576.5 610.8 591.7 601.4 601C592 610.3 576.8 610.4 567.5 601L39.5 73.1C30.1 63.7 30.1 48.5 39.5 39.2zM480.5 446.1L480.5 383.9L418.3 383.9L480.5 446.1zM354.3 320L480.5 320L480.5 224L258.3 224L354.3 320z"/></svg>