<svg xmlns="http://www.w3.org/2000/svg" viewBox="0 0 640 640"><!--! Font Awesome Pro 7.2.0 by @fontawesome - https://fontawesome.com License - https://fontawesome.com/license (Commercial License) Copyright 2026 Fonticons, Inc. --><path opacity=".4" fill="currentColor" d="M96.4 160L96.4 480C96.4 515.3 125.1 544 160.4 544L480.4 544C515.7 544 544.4 515.3 544.4 480L544.4 448L480.4 448L480.4 480L352.4 480L352.4 160L480.4 160L480.4 192L544.4 192L544.4 160C544.4 124.7 515.7 96 480.4 96L160.4 96C125.1 96 96.4 124.7 96.4 160zM160.4 160L288.4 160L288.4 480L160.4 480L160.4 160z"/><path fill="currentColor" d="M546.4 252.1C555.8 242.7 571 242.7 580.3 252.1C589.6 261.5 589.7 276.7 580.3 286L546.4 319.9L580.4 353.9C589.8 363.3 589.7 378.5 580.4 387.8C571 397.2 555.8 397.2 546.4 387.8L512.5 353.9L478.6 387.8C469.2 397.2 454 397.2 444.7 387.8C435.4 378.4 435.3 363.2 444.7 353.9L478.5 320L444.6 286C435.2 276.6 435.2 261.4 444.6 252.1C454 242.7 469.2 242.7 478.5 252.1L512.4 286L546.3 252.1z"/></svg>