<svg xmlns="http://www.w3.org/2000/svg" viewBox="0 0 640 640"><!--! Font Awesome Pro 7.2.0 by @fontawesome - https://fontawesome.com License - https://fontawesome.com/license (Commercial License) Copyright 2026 Fonticons, Inc. --><path opacity=".4" fill="currentColor" d="M192 512C192 529.7 206.3 544 224 544L416 544C433.7 544 448 529.7 448 512C448 494.3 433.7 480 416 480L352 480L352 224L288 224L288 480L224 480C206.3 480 192 494.3 192 512z"/><path fill="currentColor" d="M96 192L96 160C96 124.7 124.7 96 160 96L480 96C515.3 96 544 124.7 544 160L544 192C544 209.7 529.7 224 512 224L128 224C110.3 224 96 209.7 96 192z"/></svg>