<svg xmlns="http://www.w3.org/2000/svg" viewBox="0 0 640 640"><!--! Font Awesome Pro 7.2.0 by @fontawesome - https://fontawesome.com License - https://fontawesome.com/license (Commercial License) Copyright 2026 Fonticons, Inc. --><path opacity=".4" fill="currentColor" d="M96 160L96 480L96.3 486.5C99.6 518.8 126.9 544 160 544L480 544C515.3 544 544 515.3 544 480L544 160C544 124.7 515.3 96 480 96L160 96L153.5 96.3C123.3 99.4 99.4 123.3 96.3 153.5L96 160zM160 160L480 160L480 288L448 288L448 352L480 352L480 480L160 480L160 352L192 352L192 288L160 288L160 160zM252.6 304.2C259.8 303.2 267.4 305.4 273 311L296 334L296 334L273 311C267.4 305.4 259.8 303.2 252.6 304.2zM316.7 415.7C323.1 416.6 329.9 414.9 335.2 410.6L337 408.9L401 344.9C410.4 335.5 410.4 320.3 401 311C395.7 305.7 388.6 303.4 381.7 304.1C388.6 303.4 395.7 305.7 401 311C410.4 320.4 410.4 335.6 401 344.9L337 408.9L335.2 410.6C329.9 414.9 323.2 416.6 316.7 415.7zM322.5 224.1C334.6 225.3 344 235.6 344 248L344 334.1L344 334.1L344 248C344 235.6 334.5 225.3 322.4 224.1z"/><path fill="currentColor" d="M401 311C410.4 320.4 410.4 335.6 401 344.9L337 408.9L335.2 410.6C325.8 418.3 311.9 417.7 303.1 408.9L239.1 344.9C229.7 335.5 229.7 320.3 239.1 311C248.5 301.7 263.7 301.6 273 311L296 334L296 247.9C296 234.6 306.8 223.9 320 223.9C333.2 223.9 344 234.6 344 247.9L344 334L367 311C376.4 301.6 391.6 301.6 400.9 311z"/></svg>