<svg xmlns="http://www.w3.org/2000/svg" viewBox="0 0 640 640"><!--! Font Awesome Pro 7.2.0 by @fontawesome - https://fontawesome.com License - https://fontawesome.com/license (Commercial License) Copyright 2026 Fonticons, Inc. --><path opacity=".4" fill="currentColor" d="M96 160L96 480C96 515.3 124.7 544 160 544L192 544L192 480L160 480L160 352L480 352L480 480L448 480L448 544L480 544C515.3 544 544 515.3 544 480L544 160C544 124.7 515.3 96 480 96L160 96C124.7 96 96 124.7 96 160zM160 160L480 160L480 288L160 288L160 160z"/><path fill="currentColor" d="M252.1 545.9C242.7 555.3 242.7 570.5 252.1 579.8C261.5 589.2 276.7 589.2 286 579.8L319.9 545.9L353.9 579.9C363.3 589.3 378.5 589.3 387.8 579.9C397.2 570.5 397.2 555.3 387.8 545.9L353.9 512L387.9 478C397.3 468.6 397.3 453.4 387.9 444.1C378.5 434.7 363.3 434.7 354 444.1L320 478L286.1 444.1C276.7 434.7 261.5 434.7 252.2 444.1C242.9 453.5 242.8 468.7 252.2 478L286 512L252.1 545.9z"/></svg>