<svg xmlns="http://www.w3.org/2000/svg" viewBox="0 0 640 640"><!--! Font Awesome Pro 7.2.0 by @fontawesome - https://fontawesome.com License - https://fontawesome.com/license (Commercial License) Copyright 2026 Fonticons, Inc. --><path opacity=".4" fill="currentColor" d="M96 160L288 160L288 480L96 480C96 515.3 124.7 544 160 544L480 544C515.3 544 544 515.3 544 480L544 160C544 124.7 515.3 96 480 96L160 96C124.7 96 96 124.7 96 160zM352 160L480 160L480 480L352 480L352 160z"/><path fill="currentColor" d="M128 224C114.7 224 104 234.7 104 248L104 296L56 296C42.7 296 32 306.7 32 320C32 333.3 42.7 344 56 344L104 344L104 392C104 405.3 114.7 416 128 416C141.3 416 152 405.3 152 392L152 344L200 344C213.3 344 224 333.3 224 320C224 306.7 213.3 296 200 296L152 296L152 248C152 234.7 141.3 224 128 224z"/></svg>