<svg xmlns="http://www.w3.org/2000/svg" viewBox="0 0 640 640"><!--! Font Awesome Pro 7.2.0 by @fontawesome - https://fontawesome.com License - https://fontawesome.com/license (Commercial License) Copyright 2026 Fonticons, Inc. --><path opacity=".4" fill="currentColor" d="M96 160L96 480L96.3 486.5C99.4 516.6 123.3 540.6 153.4 543.6L159.9 543.9L479.9 543.9C515.2 543.9 543.9 515.2 543.9 479.9L543.9 159.9C543.9 124.6 515.2 95.9 479.9 95.9L160 96C126.9 96 99.6 121.2 96.3 153.5L96 160zM160 160L480 160L480 288L448 288L448 352L480 352L480 480L160 480L160 352L192 352L192 288L160 288L160 160zM252.5 335.8C259.7 336.8 267.4 334.6 272.9 329L295.9 306L295.9 306L272.9 329C267.3 334.6 259.7 336.8 252.5 335.8zM316.6 224.3C323 223.4 329.8 225.1 335.1 229.4L336.9 231.1L400.9 295.1C410.3 304.5 410.3 319.7 400.9 329C395.3 334.6 387.7 336.8 380.5 335.8C387.7 336.9 395.4 334.6 401 329C410.4 319.6 410.4 304.4 401 295.1L337 231.1L335.2 229.4C329.9 225.1 323.2 223.4 316.7 224.3zM322.4 415.9C334.5 414.7 344 404.5 344 392L344 306L344 306L344 392.1C344 404.5 334.6 414.7 322.5 416z"/><path fill="currentColor" d="M401 329C410.4 319.6 410.4 304.4 401 295.1L337 231.1L335.2 229.4C325.8 221.7 311.9 222.3 303.1 231.1L239.1 295.1C229.7 304.5 229.7 319.7 239.1 329C248.5 338.3 263.7 338.4 273 329L296 306L296 392.1C296 405.4 306.8 416.1 320 416.1C333.2 416.1 344 405.4 344 392.1L344 306L367 329C376.4 338.4 391.6 338.4 400.9 329z"/></svg>