<svg xmlns="http://www.w3.org/2000/svg" viewBox="0 0 640 640"><!--! Font Awesome Pro 7.2.0 by @fontawesome - https://fontawesome.com License - https://fontawesome.com/license (Commercial License) Copyright 2026 Fonticons, Inc. --><path opacity=".4" fill="currentColor" d="M51.8 155C64.6 174.9 72 198.5 72 224C72 249.5 64.6 273.2 51.8 293.1C44.6 304.3 47.9 319.1 59 326.3C70.1 333.4 85 330.2 92.2 319.1C109.8 291.7 120 259 120 224.1C120 189.2 109.8 156.4 92.2 129C85 117.9 70.2 114.7 59 121.8C47.8 128.9 44.7 143.8 51.8 155zM135.9 108.4C156.3 142.1 168 181.7 168 224C168 266.3 156.3 305.9 135.9 339.6C129.1 350.9 132.7 365.7 144.1 372.5C155.5 379.3 170.2 375.7 177 364.4C201.8 323.4 216 275.3 216 224C216 172.7 201.8 124.6 177 83.6C170.2 72.3 155.4 68.6 144.1 75.5C132.8 82.4 129.1 97.1 135.9 108.4zM424 224C424 275.3 438.2 323.4 463 364.4C469.9 375.7 484.6 379.4 495.9 372.5C507.2 365.6 510.9 350.9 504.1 339.6C483.7 305.9 472 266.3 472 224C472 181.7 483.7 142.1 504.1 108.4C510.9 97.1 507.3 82.3 495.9 75.5C484.5 68.7 469.9 72.3 463 83.6C438.2 124.6 424 172.7 424 224zM520 224C520 258.9 530.2 291.6 547.8 319C555 330.1 569.8 333.4 581 326.2C592.2 319 595.4 304.2 588.2 293C575.4 273.2 568 249.5 568 224C568 198.5 575.4 174.9 588.2 155C595.4 143.9 592.1 129 581 121.8C569.9 114.6 555 117.9 547.8 129C530.2 156.4 520 189 520 224z"/><path fill="currentColor" d="M320 160C355.3 160 384 188.7 384 224C384 247.7 371.1 268.3 352 279.3L352 544C352 561.7 337.7 576 320 576C302.3 576 288 561.7 288 544L288 279.3C268.9 268.2 256 247.6 256 224C256 188.7 284.7 160 320 160z"/></svg>