<svg xmlns="http://www.w3.org/2000/svg" viewBox="0 0 640 640"><!--! Font Awesome Pro 7.2.0 by @fontawesome - https://fontawesome.com License - https://fontawesome.com/license (Commercial License) Copyright 2026 Fonticons, Inc. --><path opacity=".4" fill="currentColor" d="M64 448C64 430.3 78.3 416 96 416L119 416L103 480L96 480C78.3 480 64 465.7 64 448zM96 320C96 302.3 110.3 288 128 288L151 288L135 352L128 352C110.3 352 96 337.7 96 320zM128 192C128 174.3 142.3 160 160 160L183 160L167 224L160 224C142.3 224 128 209.7 128 192zM169 480L185 416L455 416L471 480L169 480zM201 352L217 288L423 288L439 352L201 352zM233 224L249 160L391 160L407 224L233 224zM457 160L480 160C497.7 160 512 174.3 512 192C512 209.7 497.7 224 480 224L473 224L457 160zM489 288L512 288C529.7 288 544 302.3 544 320C544 337.7 529.7 352 512 352L505 352L489 288zM521 416L544 416C561.7 416 576 430.3 576 448C576 465.7 561.7 480 544 480L537 480L521 416z"/><path fill="currentColor" d="M255 135.8C259.3 118.7 248.9 101.3 231.7 97C214.5 92.7 197.2 103.1 193 120.2L97 504.2C92.7 521.3 103.1 538.7 120.3 543C137.5 547.3 154.8 536.9 159.1 519.7L255.1 135.7zM447 120.2C442.7 103.1 425.3 92.6 408.2 96.9C391.1 101.2 380.7 118.6 385 135.8L481 519.8C485.3 536.9 502.7 547.4 519.8 543.1C536.9 538.8 547.4 521.4 543.1 504.3L447.1 120.3z"/></svg>