<svg xmlns="http://www.w3.org/2000/svg" viewBox="0 0 640 640"><!--! Font Awesome Pro 7.2.0 by @fontawesome - https://fontawesome.com License - https://fontawesome.com/license (Commercial License) Copyright 2026 Fonticons, Inc. --><path opacity=".4" fill="currentColor" d="M48.4 546.3C48.4 562.7 61.7 576 78.1 576L434.7 576C451.1 576 464.4 562.7 464.4 546.3C464.4 447.8 384.6 368 286.1 368L226.7 368C128.2 368 48.4 447.8 48.4 546.3zM136.4 192C136.4 258.3 190.1 312 256.4 312C322.7 312 376.4 258.3 376.4 192C376.4 125.7 322.7 72 256.4 72C190.1 72 136.4 125.7 136.4 192z"/><path fill="currentColor" d="M596.3 206.1C605.7 196.7 605.7 181.5 596.3 172.2C586.9 162.9 571.7 162.8 562.4 172.2L528.5 206.1L494.6 172.2C485.2 162.8 470 162.8 460.7 172.2C451.4 181.6 451.3 196.8 460.7 206.1L494.6 240L460.7 273.9C451.3 283.3 451.3 298.5 460.7 307.8C470.1 317.1 485.3 317.2 494.6 307.8L528.5 273.9L562.4 307.8C571.8 317.2 587 317.2 596.3 307.8C605.6 298.4 605.7 283.2 596.3 273.9L562.4 240L596.3 206.1z"/></svg>