<svg xmlns="http://www.w3.org/2000/svg" viewBox="0 0 640 640"><!--! Font Awesome Pro 7.2.0 by @fontawesome - https://fontawesome.com License - https://fontawesome.com/license (Commercial License) Copyright 2026 Fonticons, Inc. --><path opacity=".4" fill="currentColor" d="M48 546.3C48 562.7 61.3 576 77.7 576L434.3 576C450.7 576 464 562.7 464 546.3C464 447.8 384.2 368 285.7 368L226.3 368C127.8 368 48 447.8 48 546.3zM136 192C136 258.3 189.7 312 256 312C322.3 312 376 258.3 376 192C376 125.7 322.3 72 256 72C189.7 72 136 125.7 136 192z"/><path fill="currentColor" d="M552 168C552 154.7 541.3 144 528 144C514.7 144 504 154.7 504 168L504 216L456 216C442.7 216 432 226.7 432 240C432 253.3 442.7 264 456 264L504 264L504 312C504 325.3 514.7 336 528 336C541.3 336 552 325.3 552 312L552 264L600 264C613.3 264 624 253.3 624 240C624 226.7 613.3 216 600 216L552 216L552 168z"/></svg>