<svg xmlns="http://www.w3.org/2000/svg" viewBox="0 0 640 640"><!--! Font Awesome Pro 7.2.0 by @fontawesome - https://fontawesome.com License - https://fontawesome.com/license (Commercial License) Copyright 2026 Fonticons, Inc. --><path opacity=".4" fill="currentColor" d="M128.5 224C128.5 194.2 148.9 169.1 176.5 162L176.5 162.1C181.1 160.9 185.8 160.2 190.7 160C191.3 160 191.9 160 192.5 160L390 160C393.6 160 397.1 160.4 400.5 160.9L400.5 160.8C413.6 163 425.7 169.2 435.2 178.7L493.7 237.2C505.7 249.2 512.4 265.5 512.4 282.5L512.4 512C512.4 547.3 483.7 576 448.4 576L192.4 576C157.1 576 128.4 547.3 128.4 512L128.4 224zM207.5 287C198.1 296.4 198.1 311.6 207.5 320.9L232.5 345.9L232.5 422L207.5 447C198.1 456.4 198.1 471.6 207.5 480.9C216.9 490.2 232.1 490.3 241.4 480.9L266.4 455.9L374.5 455.9L399.5 480.9C408.9 490.3 424.1 490.3 433.4 480.9C442.7 471.5 442.8 456.3 433.4 447L408.4 422L408.4 345.9L433.4 320.9C442.8 311.5 442.8 296.3 433.4 287C424 277.7 408.8 277.6 399.5 287L374.5 312L266.4 312L241.4 287C232 277.6 216.8 277.6 207.5 287zM280.5 360L360.5 360L360.5 408L280.5 408L280.5 360z"/><path fill="currentColor" d="M399.5 287C408.9 277.6 424.1 277.6 433.4 287C442.7 296.4 442.8 311.6 433.4 320.9L408.4 345.9L408.4 422L433.4 447C442.8 456.4 442.8 471.6 433.4 480.9C424 490.2 408.8 490.3 399.5 480.9L374.5 455.9L266.4 455.9L241.4 480.9C232 490.3 216.8 490.3 207.5 480.9C198.2 471.5 198.1 456.3 207.5 447L232.5 422L232.5 345.9L207.5 320.9C198.1 311.5 198.1 296.3 207.5 287C216.9 277.7 232.1 277.6 241.4 287L266.4 312L374.5 312L399.5 287zM280.5 408L360.5 408L360.5 360L280.5 360L280.5 408zM463.5 111C472.9 101.6 488.1 101.6 497.4 111L561.4 175C570.8 184.4 570.8 199.6 561.4 208.9C552 218.2 536.8 218.3 527.5 208.9L463.5 144.9C454.1 135.5 454.1 120.3 463.5 111zM344.5 64C375.4 64 400.5 89.1 400.5 120L400.5 160.9C397 160.3 393.5 160 390 160L352.5 160L352.5 120C352.5 115.6 348.9 112 344.5 112L232.5 112C228.1 112 224.5 115.6 224.5 120L224.5 160L192.5 160C187 160 181.6 160.8 176.5 162.1L176.5 120C176.5 89.1 201.6 64 232.5 64L344.5 64z"/></svg>