<svg xmlns="http://www.w3.org/2000/svg" viewBox="0 0 640 640"><!--! Font Awesome Pro 7.2.0 by @fontawesome - https://fontawesome.com License - https://fontawesome.com/license (Commercial License) Copyright 2026 Fonticons, Inc. --><path opacity=".4" fill="currentColor" d="M296 128L344 128L344 544L296 544L296 128z"/><path fill="currentColor" d="M544 64C561.7 64 576 78.3 576 96C576 112.6 563.4 126.2 547.3 127.8L544 128L544 544C544 561.7 529.7 576 512 576C494.3 576 480 561.7 480 544L344 544L344 128L296 128L296 544L160 544C160 561.7 145.7 576 128 576C110.3 576 96 561.7 96 544L96 128L92.7 127.8C76.6 126.2 64 112.6 64 96C64 78.3 78.3 64 96 64L544 64zM232 256C218.7 256 208 266.7 208 280L208 328C208 341.3 218.7 352 232 352C245.3 352 256 341.3 256 328L256 280C256 266.7 245.3 256 232 256zM408 256C394.7 256 384 266.7 384 280L384 328C384 341.3 394.7 352 408 352C421.3 352 432 341.3 432 328L432 280C432 266.7 421.3 256 408 256z"/></svg>